<mxfile host="app.diagrams.net" modified="2024-05-22T11:34:01.966Z" agent="Mozilla/5.0 (Windows NT 10.0; Win64; x64) AppleWebKit/537.36 (KHTML, like Gecko) Chrome/124.0.0.0 Safari/537.36" etag="uYdfXd8nkGCiZHrRs43e" version="24.3.1" type="device">
  <diagram id="R2lEEEUBdFMjLlhIrx00" name="Page-1">
    <mxGraphModel dx="9044" dy="3188" grid="1" gridSize="10" guides="1" tooltips="1" connect="1" arrows="1" fold="1" page="1" pageScale="1" pageWidth="850" pageHeight="1100" math="0" shadow="0" extFonts="Permanent Marker^https://fonts.googleapis.com/css?family=Permanent+Marker">
      <root>
        <mxCell id="0" />
        <mxCell id="1" parent="0" />
        <mxCell id="bjHw961es4BenDyh05qI-1" value="User" style="shape=table;startSize=30;container=1;collapsible=1;childLayout=tableLayout;fixedRows=1;rowLines=0;fontStyle=1;align=center;resizeLast=1;" vertex="1" parent="1">
          <mxGeometry x="-3910" y="-470" width="130" height="150" as="geometry" />
        </mxCell>
        <mxCell id="bjHw961es4BenDyh05qI-2" value="" style="shape=tableRow;horizontal=0;startSize=0;swimlaneHead=0;swimlaneBody=0;fillColor=none;collapsible=0;dropTarget=0;points=[[0,0.5],[1,0.5]];portConstraint=eastwest;strokeColor=inherit;top=0;left=0;right=0;bottom=1;" vertex="1" parent="bjHw961es4BenDyh05qI-1">
          <mxGeometry y="30" width="130" height="30" as="geometry" />
        </mxCell>
        <mxCell id="bjHw961es4BenDyh05qI-3" value="PK" style="shape=partialRectangle;overflow=hidden;connectable=0;fillColor=none;strokeColor=inherit;top=0;left=0;bottom=0;right=0;fontStyle=1;" vertex="1" parent="bjHw961es4BenDyh05qI-2">
          <mxGeometry width="30" height="30" as="geometry">
            <mxRectangle width="30" height="30" as="alternateBounds" />
          </mxGeometry>
        </mxCell>
        <mxCell id="bjHw961es4BenDyh05qI-4" value="user_id" style="shape=partialRectangle;overflow=hidden;connectable=0;fillColor=none;align=left;strokeColor=inherit;top=0;left=0;bottom=0;right=0;spacingLeft=6;fontStyle=5;" vertex="1" parent="bjHw961es4BenDyh05qI-2">
          <mxGeometry x="30" width="100" height="30" as="geometry">
            <mxRectangle width="100" height="30" as="alternateBounds" />
          </mxGeometry>
        </mxCell>
        <mxCell id="bjHw961es4BenDyh05qI-5" value="" style="shape=tableRow;horizontal=0;startSize=0;swimlaneHead=0;swimlaneBody=0;fillColor=none;collapsible=0;dropTarget=0;points=[[0,0.5],[1,0.5]];portConstraint=eastwest;strokeColor=inherit;top=0;left=0;right=0;bottom=0;" vertex="1" parent="bjHw961es4BenDyh05qI-1">
          <mxGeometry y="60" width="130" height="30" as="geometry" />
        </mxCell>
        <mxCell id="bjHw961es4BenDyh05qI-6" value="" style="shape=partialRectangle;overflow=hidden;connectable=0;fillColor=none;strokeColor=inherit;top=0;left=0;bottom=0;right=0;" vertex="1" parent="bjHw961es4BenDyh05qI-5">
          <mxGeometry width="30" height="30" as="geometry">
            <mxRectangle width="30" height="30" as="alternateBounds" />
          </mxGeometry>
        </mxCell>
        <mxCell id="bjHw961es4BenDyh05qI-7" value="username" style="shape=partialRectangle;overflow=hidden;connectable=0;fillColor=none;align=left;strokeColor=inherit;top=0;left=0;bottom=0;right=0;spacingLeft=6;" vertex="1" parent="bjHw961es4BenDyh05qI-5">
          <mxGeometry x="30" width="100" height="30" as="geometry">
            <mxRectangle width="100" height="30" as="alternateBounds" />
          </mxGeometry>
        </mxCell>
        <mxCell id="bjHw961es4BenDyh05qI-8" value="" style="shape=tableRow;horizontal=0;startSize=0;swimlaneHead=0;swimlaneBody=0;fillColor=none;collapsible=0;dropTarget=0;points=[[0,0.5],[1,0.5]];portConstraint=eastwest;strokeColor=inherit;top=0;left=0;right=0;bottom=0;" vertex="1" parent="bjHw961es4BenDyh05qI-1">
          <mxGeometry y="90" width="130" height="30" as="geometry" />
        </mxCell>
        <mxCell id="bjHw961es4BenDyh05qI-9" value="" style="shape=partialRectangle;overflow=hidden;connectable=0;fillColor=none;strokeColor=inherit;top=0;left=0;bottom=0;right=0;" vertex="1" parent="bjHw961es4BenDyh05qI-8">
          <mxGeometry width="30" height="30" as="geometry">
            <mxRectangle width="30" height="30" as="alternateBounds" />
          </mxGeometry>
        </mxCell>
        <mxCell id="bjHw961es4BenDyh05qI-10" value="password" style="shape=partialRectangle;overflow=hidden;connectable=0;fillColor=none;align=left;strokeColor=inherit;top=0;left=0;bottom=0;right=0;spacingLeft=6;" vertex="1" parent="bjHw961es4BenDyh05qI-8">
          <mxGeometry x="30" width="100" height="30" as="geometry">
            <mxRectangle width="100" height="30" as="alternateBounds" />
          </mxGeometry>
        </mxCell>
        <mxCell id="bjHw961es4BenDyh05qI-11" value="" style="shape=tableRow;horizontal=0;startSize=0;swimlaneHead=0;swimlaneBody=0;fillColor=none;collapsible=0;dropTarget=0;points=[[0,0.5],[1,0.5]];portConstraint=eastwest;strokeColor=inherit;top=0;left=0;right=0;bottom=0;" vertex="1" parent="bjHw961es4BenDyh05qI-1">
          <mxGeometry y="120" width="130" height="30" as="geometry" />
        </mxCell>
        <mxCell id="bjHw961es4BenDyh05qI-12" value="" style="shape=partialRectangle;overflow=hidden;connectable=0;fillColor=none;strokeColor=inherit;top=0;left=0;bottom=0;right=0;" vertex="1" parent="bjHw961es4BenDyh05qI-11">
          <mxGeometry width="30" height="30" as="geometry">
            <mxRectangle width="30" height="30" as="alternateBounds" />
          </mxGeometry>
        </mxCell>
        <mxCell id="bjHw961es4BenDyh05qI-13" value="" style="shape=partialRectangle;overflow=hidden;connectable=0;fillColor=none;align=left;strokeColor=inherit;top=0;left=0;bottom=0;right=0;spacingLeft=6;" vertex="1" parent="bjHw961es4BenDyh05qI-11">
          <mxGeometry x="30" width="100" height="30" as="geometry">
            <mxRectangle width="100" height="30" as="alternateBounds" />
          </mxGeometry>
        </mxCell>
        <mxCell id="bjHw961es4BenDyh05qI-14" value="Admin" style="shape=table;startSize=30;container=1;collapsible=1;childLayout=tableLayout;fixedRows=1;rowLines=0;fontStyle=1;align=center;resizeLast=1;" vertex="1" parent="1">
          <mxGeometry x="-4280" y="-470" width="130" height="60" as="geometry" />
        </mxCell>
        <mxCell id="bjHw961es4BenDyh05qI-15" value="" style="shape=tableRow;horizontal=0;startSize=0;swimlaneHead=0;swimlaneBody=0;fillColor=none;collapsible=0;dropTarget=0;points=[[0,0.5],[1,0.5]];portConstraint=eastwest;strokeColor=inherit;top=0;left=0;right=0;bottom=1;" vertex="1" parent="bjHw961es4BenDyh05qI-14">
          <mxGeometry y="30" width="130" height="30" as="geometry" />
        </mxCell>
        <mxCell id="bjHw961es4BenDyh05qI-16" value="PK" style="shape=partialRectangle;overflow=hidden;connectable=0;fillColor=none;strokeColor=inherit;top=0;left=0;bottom=0;right=0;fontStyle=1;" vertex="1" parent="bjHw961es4BenDyh05qI-15">
          <mxGeometry width="30" height="30" as="geometry">
            <mxRectangle width="30" height="30" as="alternateBounds" />
          </mxGeometry>
        </mxCell>
        <mxCell id="bjHw961es4BenDyh05qI-17" value="user_id" style="shape=partialRectangle;overflow=hidden;connectable=0;fillColor=none;align=left;strokeColor=inherit;top=0;left=0;bottom=0;right=0;spacingLeft=6;fontStyle=5;" vertex="1" parent="bjHw961es4BenDyh05qI-15">
          <mxGeometry x="30" width="100" height="30" as="geometry">
            <mxRectangle width="100" height="30" as="alternateBounds" />
          </mxGeometry>
        </mxCell>
        <mxCell id="bjHw961es4BenDyh05qI-18" value="image" style="shape=table;startSize=30;container=1;collapsible=1;childLayout=tableLayout;fixedRows=1;rowLines=0;fontStyle=1;align=center;resizeLast=1;" vertex="1" parent="1">
          <mxGeometry x="-3840" y="290" width="140" height="120" as="geometry" />
        </mxCell>
        <mxCell id="bjHw961es4BenDyh05qI-19" value="" style="shape=tableRow;horizontal=0;startSize=0;swimlaneHead=0;swimlaneBody=0;fillColor=none;collapsible=0;dropTarget=0;points=[[0,0.5],[1,0.5]];portConstraint=eastwest;strokeColor=inherit;top=0;left=0;right=0;bottom=1;" vertex="1" parent="bjHw961es4BenDyh05qI-18">
          <mxGeometry y="30" width="140" height="30" as="geometry" />
        </mxCell>
        <mxCell id="bjHw961es4BenDyh05qI-20" value="PK" style="shape=partialRectangle;overflow=hidden;connectable=0;fillColor=none;strokeColor=inherit;top=0;left=0;bottom=0;right=0;fontStyle=1;" vertex="1" parent="bjHw961es4BenDyh05qI-19">
          <mxGeometry width="30" height="30" as="geometry">
            <mxRectangle width="30" height="30" as="alternateBounds" />
          </mxGeometry>
        </mxCell>
        <mxCell id="bjHw961es4BenDyh05qI-21" value="image_id" style="shape=partialRectangle;overflow=hidden;connectable=0;fillColor=none;align=left;strokeColor=inherit;top=0;left=0;bottom=0;right=0;spacingLeft=6;fontStyle=5;" vertex="1" parent="bjHw961es4BenDyh05qI-19">
          <mxGeometry x="30" width="110" height="30" as="geometry">
            <mxRectangle width="110" height="30" as="alternateBounds" />
          </mxGeometry>
        </mxCell>
        <mxCell id="bjHw961es4BenDyh05qI-22" value="" style="shape=tableRow;horizontal=0;startSize=0;swimlaneHead=0;swimlaneBody=0;fillColor=none;collapsible=0;dropTarget=0;points=[[0,0.5],[1,0.5]];portConstraint=eastwest;strokeColor=inherit;top=0;left=0;right=0;bottom=0;" vertex="1" parent="bjHw961es4BenDyh05qI-18">
          <mxGeometry y="60" width="140" height="30" as="geometry" />
        </mxCell>
        <mxCell id="bjHw961es4BenDyh05qI-23" value="" style="shape=partialRectangle;overflow=hidden;connectable=0;fillColor=none;strokeColor=inherit;top=0;left=0;bottom=0;right=0;" vertex="1" parent="bjHw961es4BenDyh05qI-22">
          <mxGeometry width="30" height="30" as="geometry">
            <mxRectangle width="30" height="30" as="alternateBounds" />
          </mxGeometry>
        </mxCell>
        <mxCell id="bjHw961es4BenDyh05qI-24" value="image_url" style="shape=partialRectangle;overflow=hidden;connectable=0;fillColor=none;align=left;strokeColor=inherit;top=0;left=0;bottom=0;right=0;spacingLeft=6;" vertex="1" parent="bjHw961es4BenDyh05qI-22">
          <mxGeometry x="30" width="110" height="30" as="geometry">
            <mxRectangle width="110" height="30" as="alternateBounds" />
          </mxGeometry>
        </mxCell>
        <mxCell id="bjHw961es4BenDyh05qI-25" value="" style="shape=tableRow;horizontal=0;startSize=0;swimlaneHead=0;swimlaneBody=0;fillColor=none;collapsible=0;dropTarget=0;points=[[0,0.5],[1,0.5]];portConstraint=eastwest;strokeColor=inherit;top=0;left=0;right=0;bottom=0;" vertex="1" parent="bjHw961es4BenDyh05qI-18">
          <mxGeometry y="90" width="140" height="30" as="geometry" />
        </mxCell>
        <mxCell id="bjHw961es4BenDyh05qI-26" value="" style="shape=partialRectangle;overflow=hidden;connectable=0;fillColor=none;strokeColor=inherit;top=0;left=0;bottom=0;right=0;" vertex="1" parent="bjHw961es4BenDyh05qI-25">
          <mxGeometry width="30" height="30" as="geometry">
            <mxRectangle width="30" height="30" as="alternateBounds" />
          </mxGeometry>
        </mxCell>
        <mxCell id="bjHw961es4BenDyh05qI-27" value="description" style="shape=partialRectangle;overflow=hidden;connectable=0;fillColor=none;align=left;strokeColor=inherit;top=0;left=0;bottom=0;right=0;spacingLeft=6;" vertex="1" parent="bjHw961es4BenDyh05qI-25">
          <mxGeometry x="30" width="110" height="30" as="geometry">
            <mxRectangle width="110" height="30" as="alternateBounds" />
          </mxGeometry>
        </mxCell>
        <mxCell id="bjHw961es4BenDyh05qI-28" value="National_Cuisine" style="shape=table;startSize=30;container=1;collapsible=1;childLayout=tableLayout;fixedRows=1;rowLines=0;fontStyle=1;align=center;resizeLast=1;" vertex="1" parent="1">
          <mxGeometry x="-4230" y="-30" width="170" height="90" as="geometry" />
        </mxCell>
        <mxCell id="bjHw961es4BenDyh05qI-29" value="" style="shape=tableRow;horizontal=0;startSize=0;swimlaneHead=0;swimlaneBody=0;fillColor=none;collapsible=0;dropTarget=0;points=[[0,0.5],[1,0.5]];portConstraint=eastwest;strokeColor=inherit;top=0;left=0;right=0;bottom=1;" vertex="1" parent="bjHw961es4BenDyh05qI-28">
          <mxGeometry y="30" width="170" height="30" as="geometry" />
        </mxCell>
        <mxCell id="bjHw961es4BenDyh05qI-30" value="PK" style="shape=partialRectangle;overflow=hidden;connectable=0;fillColor=none;strokeColor=inherit;top=0;left=0;bottom=0;right=0;fontStyle=1;" vertex="1" parent="bjHw961es4BenDyh05qI-29">
          <mxGeometry width="30" height="30" as="geometry">
            <mxRectangle width="30" height="30" as="alternateBounds" />
          </mxGeometry>
        </mxCell>
        <mxCell id="bjHw961es4BenDyh05qI-31" value="national_cuisine_id" style="shape=partialRectangle;overflow=hidden;connectable=0;fillColor=none;align=left;strokeColor=inherit;top=0;left=0;bottom=0;right=0;spacingLeft=6;fontStyle=5;" vertex="1" parent="bjHw961es4BenDyh05qI-29">
          <mxGeometry x="30" width="140" height="30" as="geometry">
            <mxRectangle width="140" height="30" as="alternateBounds" />
          </mxGeometry>
        </mxCell>
        <mxCell id="bjHw961es4BenDyh05qI-32" value="" style="shape=tableRow;horizontal=0;startSize=0;swimlaneHead=0;swimlaneBody=0;fillColor=none;collapsible=0;dropTarget=0;points=[[0,0.5],[1,0.5]];portConstraint=eastwest;strokeColor=inherit;top=0;left=0;right=0;bottom=0;" vertex="1" parent="bjHw961es4BenDyh05qI-28">
          <mxGeometry y="60" width="170" height="30" as="geometry" />
        </mxCell>
        <mxCell id="bjHw961es4BenDyh05qI-33" value="" style="shape=partialRectangle;overflow=hidden;connectable=0;fillColor=none;strokeColor=inherit;top=0;left=0;bottom=0;right=0;" vertex="1" parent="bjHw961es4BenDyh05qI-32">
          <mxGeometry width="30" height="30" as="geometry">
            <mxRectangle width="30" height="30" as="alternateBounds" />
          </mxGeometry>
        </mxCell>
        <mxCell id="bjHw961es4BenDyh05qI-34" value="country_name" style="shape=partialRectangle;overflow=hidden;connectable=0;fillColor=none;align=left;strokeColor=inherit;top=0;left=0;bottom=0;right=0;spacingLeft=6;" vertex="1" parent="bjHw961es4BenDyh05qI-32">
          <mxGeometry x="30" width="140" height="30" as="geometry">
            <mxRectangle width="140" height="30" as="alternateBounds" />
          </mxGeometry>
        </mxCell>
        <mxCell id="bjHw961es4BenDyh05qI-35" value="Food_Group" style="shape=table;startSize=30;container=1;collapsible=1;childLayout=tableLayout;fixedRows=1;rowLines=0;fontStyle=1;align=center;resizeLast=1;" vertex="1" parent="1">
          <mxGeometry x="-4140" y="600" width="320" height="150" as="geometry" />
        </mxCell>
        <mxCell id="bjHw961es4BenDyh05qI-39" value="" style="shape=tableRow;horizontal=0;startSize=0;swimlaneHead=0;swimlaneBody=0;fillColor=none;collapsible=0;dropTarget=0;points=[[0,0.5],[1,0.5]];portConstraint=eastwest;strokeColor=inherit;top=0;left=0;right=0;bottom=1;" vertex="1" parent="bjHw961es4BenDyh05qI-35">
          <mxGeometry y="30" width="320" height="30" as="geometry" />
        </mxCell>
        <mxCell id="bjHw961es4BenDyh05qI-40" value="PK" style="shape=partialRectangle;overflow=hidden;connectable=0;fillColor=none;strokeColor=inherit;top=0;left=0;bottom=0;right=0;fontStyle=1;" vertex="1" parent="bjHw961es4BenDyh05qI-39">
          <mxGeometry width="30" height="30" as="geometry">
            <mxRectangle width="30" height="30" as="alternateBounds" />
          </mxGeometry>
        </mxCell>
        <mxCell id="bjHw961es4BenDyh05qI-41" value="food_group_id" style="shape=partialRectangle;overflow=hidden;connectable=0;fillColor=none;align=left;strokeColor=inherit;top=0;left=0;bottom=0;right=0;spacingLeft=6;fontStyle=5;" vertex="1" parent="bjHw961es4BenDyh05qI-39">
          <mxGeometry x="30" width="290" height="30" as="geometry">
            <mxRectangle width="290" height="30" as="alternateBounds" />
          </mxGeometry>
        </mxCell>
        <mxCell id="bjHw961es4BenDyh05qI-42" value="" style="shape=tableRow;horizontal=0;startSize=0;swimlaneHead=0;swimlaneBody=0;fillColor=none;collapsible=0;dropTarget=0;points=[[0,0.5],[1,0.5]];portConstraint=eastwest;strokeColor=inherit;top=0;left=0;right=0;bottom=0;" vertex="1" parent="bjHw961es4BenDyh05qI-35">
          <mxGeometry y="60" width="320" height="30" as="geometry" />
        </mxCell>
        <mxCell id="bjHw961es4BenDyh05qI-43" value="" style="shape=partialRectangle;overflow=hidden;connectable=0;fillColor=none;strokeColor=inherit;top=0;left=0;bottom=0;right=0;" vertex="1" parent="bjHw961es4BenDyh05qI-42">
          <mxGeometry width="30" height="30" as="geometry">
            <mxRectangle width="30" height="30" as="alternateBounds" />
          </mxGeometry>
        </mxCell>
        <mxCell id="bjHw961es4BenDyh05qI-44" value="name" style="shape=partialRectangle;overflow=hidden;connectable=0;fillColor=none;align=left;strokeColor=inherit;top=0;left=0;bottom=0;right=0;spacingLeft=6;" vertex="1" parent="bjHw961es4BenDyh05qI-42">
          <mxGeometry x="30" width="290" height="30" as="geometry">
            <mxRectangle width="290" height="30" as="alternateBounds" />
          </mxGeometry>
        </mxCell>
        <mxCell id="bjHw961es4BenDyh05qI-45" value="" style="shape=tableRow;horizontal=0;startSize=0;swimlaneHead=0;swimlaneBody=0;fillColor=none;collapsible=0;dropTarget=0;points=[[0,0.5],[1,0.5]];portConstraint=eastwest;strokeColor=inherit;top=0;left=0;right=0;bottom=0;" vertex="1" parent="bjHw961es4BenDyh05qI-35">
          <mxGeometry y="90" width="320" height="30" as="geometry" />
        </mxCell>
        <mxCell id="bjHw961es4BenDyh05qI-46" value="" style="shape=partialRectangle;overflow=hidden;connectable=0;fillColor=none;strokeColor=inherit;top=0;left=0;bottom=0;right=0;" vertex="1" parent="bjHw961es4BenDyh05qI-45">
          <mxGeometry width="30" height="30" as="geometry">
            <mxRectangle width="30" height="30" as="alternateBounds" />
          </mxGeometry>
        </mxCell>
        <mxCell id="bjHw961es4BenDyh05qI-47" value="description" style="shape=partialRectangle;overflow=hidden;connectable=0;fillColor=none;align=left;strokeColor=inherit;top=0;left=0;bottom=0;right=0;spacingLeft=6;" vertex="1" parent="bjHw961es4BenDyh05qI-45">
          <mxGeometry x="30" width="290" height="30" as="geometry">
            <mxRectangle width="290" height="30" as="alternateBounds" />
          </mxGeometry>
        </mxCell>
        <mxCell id="bjHw961es4BenDyh05qI-48" value="" style="shape=tableRow;horizontal=0;startSize=0;swimlaneHead=0;swimlaneBody=0;fillColor=none;collapsible=0;dropTarget=0;points=[[0,0.5],[1,0.5]];portConstraint=eastwest;strokeColor=inherit;top=0;left=0;right=0;bottom=0;" vertex="1" parent="bjHw961es4BenDyh05qI-35">
          <mxGeometry y="120" width="320" height="30" as="geometry" />
        </mxCell>
        <mxCell id="bjHw961es4BenDyh05qI-49" value="" style="shape=partialRectangle;overflow=hidden;connectable=0;fillColor=none;strokeColor=inherit;top=0;left=0;bottom=0;right=0;" vertex="1" parent="bjHw961es4BenDyh05qI-48">
          <mxGeometry width="30" height="30" as="geometry">
            <mxRectangle width="30" height="30" as="alternateBounds" />
          </mxGeometry>
        </mxCell>
        <mxCell id="bjHw961es4BenDyh05qI-50" value="characterization_for_recipe" style="shape=partialRectangle;overflow=hidden;connectable=0;fillColor=none;align=left;strokeColor=inherit;top=0;left=0;bottom=0;right=0;spacingLeft=6;" vertex="1" parent="bjHw961es4BenDyh05qI-48">
          <mxGeometry x="30" width="290" height="30" as="geometry">
            <mxRectangle width="290" height="30" as="alternateBounds" />
          </mxGeometry>
        </mxCell>
        <mxCell id="bjHw961es4BenDyh05qI-66" value="Ingredient" style="shape=table;startSize=30;container=1;collapsible=1;childLayout=tableLayout;fixedRows=1;rowLines=0;fontStyle=1;align=center;resizeLast=1;" vertex="1" parent="1">
          <mxGeometry x="-4420" y="190" width="320" height="150" as="geometry" />
        </mxCell>
        <mxCell id="bjHw961es4BenDyh05qI-67" value="" style="shape=tableRow;horizontal=0;startSize=0;swimlaneHead=0;swimlaneBody=0;fillColor=none;collapsible=0;dropTarget=0;points=[[0,0.5],[1,0.5]];portConstraint=eastwest;strokeColor=inherit;top=0;left=0;right=0;bottom=1;" vertex="1" parent="bjHw961es4BenDyh05qI-66">
          <mxGeometry y="30" width="320" height="30" as="geometry" />
        </mxCell>
        <mxCell id="bjHw961es4BenDyh05qI-68" value="PK" style="shape=partialRectangle;overflow=hidden;connectable=0;fillColor=none;strokeColor=inherit;top=0;left=0;bottom=0;right=0;fontStyle=1;" vertex="1" parent="bjHw961es4BenDyh05qI-67">
          <mxGeometry width="30" height="30" as="geometry">
            <mxRectangle width="30" height="30" as="alternateBounds" />
          </mxGeometry>
        </mxCell>
        <mxCell id="bjHw961es4BenDyh05qI-69" value="image_id" style="shape=partialRectangle;overflow=hidden;connectable=0;fillColor=none;align=left;strokeColor=inherit;top=0;left=0;bottom=0;right=0;spacingLeft=6;fontStyle=5;" vertex="1" parent="bjHw961es4BenDyh05qI-67">
          <mxGeometry x="30" width="290" height="30" as="geometry">
            <mxRectangle width="290" height="30" as="alternateBounds" />
          </mxGeometry>
        </mxCell>
        <mxCell id="bjHw961es4BenDyh05qI-73" value="" style="shape=tableRow;horizontal=0;startSize=0;swimlaneHead=0;swimlaneBody=0;fillColor=none;collapsible=0;dropTarget=0;points=[[0,0.5],[1,0.5]];portConstraint=eastwest;strokeColor=inherit;top=0;left=0;right=0;bottom=1;" vertex="1" parent="bjHw961es4BenDyh05qI-66">
          <mxGeometry y="60" width="320" height="30" as="geometry" />
        </mxCell>
        <mxCell id="bjHw961es4BenDyh05qI-74" value="PK" style="shape=partialRectangle;overflow=hidden;connectable=0;fillColor=none;strokeColor=inherit;top=0;left=0;bottom=0;right=0;fontStyle=1;" vertex="1" parent="bjHw961es4BenDyh05qI-73">
          <mxGeometry width="30" height="30" as="geometry">
            <mxRectangle width="30" height="30" as="alternateBounds" />
          </mxGeometry>
        </mxCell>
        <mxCell id="bjHw961es4BenDyh05qI-75" value="ingredient_id" style="shape=partialRectangle;overflow=hidden;connectable=0;fillColor=none;align=left;strokeColor=inherit;top=0;left=0;bottom=0;right=0;spacingLeft=6;fontStyle=5;" vertex="1" parent="bjHw961es4BenDyh05qI-73">
          <mxGeometry x="30" width="290" height="30" as="geometry">
            <mxRectangle width="290" height="30" as="alternateBounds" />
          </mxGeometry>
        </mxCell>
        <mxCell id="bjHw961es4BenDyh05qI-76" value="" style="shape=tableRow;horizontal=0;startSize=0;swimlaneHead=0;swimlaneBody=0;fillColor=none;collapsible=0;dropTarget=0;points=[[0,0.5],[1,0.5]];portConstraint=eastwest;strokeColor=inherit;top=0;left=0;right=0;bottom=0;" vertex="1" parent="bjHw961es4BenDyh05qI-66">
          <mxGeometry y="90" width="320" height="30" as="geometry" />
        </mxCell>
        <mxCell id="bjHw961es4BenDyh05qI-77" value="" style="shape=partialRectangle;overflow=hidden;connectable=0;fillColor=none;strokeColor=inherit;top=0;left=0;bottom=0;right=0;" vertex="1" parent="bjHw961es4BenDyh05qI-76">
          <mxGeometry width="30" height="30" as="geometry">
            <mxRectangle width="30" height="30" as="alternateBounds" />
          </mxGeometry>
        </mxCell>
        <mxCell id="bjHw961es4BenDyh05qI-78" value="name" style="shape=partialRectangle;overflow=hidden;connectable=0;fillColor=none;align=left;strokeColor=inherit;top=0;left=0;bottom=0;right=0;spacingLeft=6;" vertex="1" parent="bjHw961es4BenDyh05qI-76">
          <mxGeometry x="30" width="290" height="30" as="geometry">
            <mxRectangle width="290" height="30" as="alternateBounds" />
          </mxGeometry>
        </mxCell>
        <mxCell id="bjHw961es4BenDyh05qI-79" value="" style="shape=tableRow;horizontal=0;startSize=0;swimlaneHead=0;swimlaneBody=0;fillColor=none;collapsible=0;dropTarget=0;points=[[0,0.5],[1,0.5]];portConstraint=eastwest;strokeColor=inherit;top=0;left=0;right=0;bottom=0;" vertex="1" parent="bjHw961es4BenDyh05qI-66">
          <mxGeometry y="120" width="320" height="30" as="geometry" />
        </mxCell>
        <mxCell id="bjHw961es4BenDyh05qI-80" value="" style="shape=partialRectangle;overflow=hidden;connectable=0;fillColor=none;strokeColor=inherit;top=0;left=0;bottom=0;right=0;" vertex="1" parent="bjHw961es4BenDyh05qI-79">
          <mxGeometry width="30" height="30" as="geometry">
            <mxRectangle width="30" height="30" as="alternateBounds" />
          </mxGeometry>
        </mxCell>
        <mxCell id="bjHw961es4BenDyh05qI-81" value="calories_per_unit" style="shape=partialRectangle;overflow=hidden;connectable=0;fillColor=none;align=left;strokeColor=inherit;top=0;left=0;bottom=0;right=0;spacingLeft=6;" vertex="1" parent="bjHw961es4BenDyh05qI-79">
          <mxGeometry x="30" width="290" height="30" as="geometry">
            <mxRectangle width="290" height="30" as="alternateBounds" />
          </mxGeometry>
        </mxCell>
        <mxCell id="bjHw961es4BenDyh05qI-112" value="Recipe" style="shape=table;startSize=30;container=1;collapsible=1;childLayout=tableLayout;fixedRows=1;rowLines=0;fontStyle=1;align=center;resizeLast=1;" vertex="1" parent="1">
          <mxGeometry x="-3110" y="-80" width="320" height="420" as="geometry" />
        </mxCell>
        <mxCell id="bjHw961es4BenDyh05qI-119" value="" style="shape=tableRow;horizontal=0;startSize=0;swimlaneHead=0;swimlaneBody=0;fillColor=none;collapsible=0;dropTarget=0;points=[[0,0.5],[1,0.5]];portConstraint=eastwest;strokeColor=inherit;top=0;left=0;right=0;bottom=1;" vertex="1" parent="bjHw961es4BenDyh05qI-112">
          <mxGeometry y="30" width="320" height="30" as="geometry" />
        </mxCell>
        <mxCell id="bjHw961es4BenDyh05qI-120" value="PK" style="shape=partialRectangle;overflow=hidden;connectable=0;fillColor=none;strokeColor=inherit;top=0;left=0;bottom=0;right=0;fontStyle=1;" vertex="1" parent="bjHw961es4BenDyh05qI-119">
          <mxGeometry width="30" height="30" as="geometry">
            <mxRectangle width="30" height="30" as="alternateBounds" />
          </mxGeometry>
        </mxCell>
        <mxCell id="bjHw961es4BenDyh05qI-121" value="recipe_id" style="shape=partialRectangle;overflow=hidden;connectable=0;fillColor=none;align=left;strokeColor=inherit;top=0;left=0;bottom=0;right=0;spacingLeft=6;fontStyle=5;" vertex="1" parent="bjHw961es4BenDyh05qI-119">
          <mxGeometry x="30" width="290" height="30" as="geometry">
            <mxRectangle width="290" height="30" as="alternateBounds" />
          </mxGeometry>
        </mxCell>
        <mxCell id="bjHw961es4BenDyh05qI-122" value="" style="shape=tableRow;horizontal=0;startSize=0;swimlaneHead=0;swimlaneBody=0;fillColor=none;collapsible=0;dropTarget=0;points=[[0,0.5],[1,0.5]];portConstraint=eastwest;strokeColor=inherit;top=0;left=0;right=0;bottom=0;" vertex="1" parent="bjHw961es4BenDyh05qI-112">
          <mxGeometry y="60" width="320" height="30" as="geometry" />
        </mxCell>
        <mxCell id="bjHw961es4BenDyh05qI-123" value="" style="shape=partialRectangle;overflow=hidden;connectable=0;fillColor=none;strokeColor=inherit;top=0;left=0;bottom=0;right=0;" vertex="1" parent="bjHw961es4BenDyh05qI-122">
          <mxGeometry width="30" height="30" as="geometry">
            <mxRectangle width="30" height="30" as="alternateBounds" />
          </mxGeometry>
        </mxCell>
        <mxCell id="bjHw961es4BenDyh05qI-124" value="recipe_type" style="shape=partialRectangle;overflow=hidden;connectable=0;fillColor=none;align=left;strokeColor=inherit;top=0;left=0;bottom=0;right=0;spacingLeft=6;" vertex="1" parent="bjHw961es4BenDyh05qI-122">
          <mxGeometry x="30" width="290" height="30" as="geometry">
            <mxRectangle width="290" height="30" as="alternateBounds" />
          </mxGeometry>
        </mxCell>
        <mxCell id="bjHw961es4BenDyh05qI-125" value="" style="shape=tableRow;horizontal=0;startSize=0;swimlaneHead=0;swimlaneBody=0;fillColor=none;collapsible=0;dropTarget=0;points=[[0,0.5],[1,0.5]];portConstraint=eastwest;strokeColor=inherit;top=0;left=0;right=0;bottom=0;" vertex="1" parent="bjHw961es4BenDyh05qI-112">
          <mxGeometry y="90" width="320" height="30" as="geometry" />
        </mxCell>
        <mxCell id="bjHw961es4BenDyh05qI-126" value="" style="shape=partialRectangle;overflow=hidden;connectable=0;fillColor=none;strokeColor=inherit;top=0;left=0;bottom=0;right=0;" vertex="1" parent="bjHw961es4BenDyh05qI-125">
          <mxGeometry width="30" height="30" as="geometry">
            <mxRectangle width="30" height="30" as="alternateBounds" />
          </mxGeometry>
        </mxCell>
        <mxCell id="bjHw961es4BenDyh05qI-127" value="active" style="shape=partialRectangle;overflow=hidden;connectable=0;fillColor=none;align=left;strokeColor=inherit;top=0;left=0;bottom=0;right=0;spacingLeft=6;" vertex="1" parent="bjHw961es4BenDyh05qI-125">
          <mxGeometry x="30" width="290" height="30" as="geometry">
            <mxRectangle width="290" height="30" as="alternateBounds" />
          </mxGeometry>
        </mxCell>
        <mxCell id="bjHw961es4BenDyh05qI-128" value="" style="shape=tableRow;horizontal=0;startSize=0;swimlaneHead=0;swimlaneBody=0;fillColor=none;collapsible=0;dropTarget=0;points=[[0,0.5],[1,0.5]];portConstraint=eastwest;strokeColor=inherit;top=0;left=0;right=0;bottom=0;" vertex="1" parent="bjHw961es4BenDyh05qI-112">
          <mxGeometry y="120" width="320" height="30" as="geometry" />
        </mxCell>
        <mxCell id="bjHw961es4BenDyh05qI-129" value="" style="shape=partialRectangle;overflow=hidden;connectable=0;fillColor=none;strokeColor=inherit;top=0;left=0;bottom=0;right=0;" vertex="1" parent="bjHw961es4BenDyh05qI-128">
          <mxGeometry width="30" height="30" as="geometry">
            <mxRectangle width="30" height="30" as="alternateBounds" />
          </mxGeometry>
        </mxCell>
        <mxCell id="bjHw961es4BenDyh05qI-130" value="name" style="shape=partialRectangle;overflow=hidden;connectable=0;fillColor=none;align=left;strokeColor=inherit;top=0;left=0;bottom=0;right=0;spacingLeft=6;" vertex="1" parent="bjHw961es4BenDyh05qI-128">
          <mxGeometry x="30" width="290" height="30" as="geometry">
            <mxRectangle width="290" height="30" as="alternateBounds" />
          </mxGeometry>
        </mxCell>
        <mxCell id="bjHw961es4BenDyh05qI-131" value="" style="shape=tableRow;horizontal=0;startSize=0;swimlaneHead=0;swimlaneBody=0;fillColor=none;collapsible=0;dropTarget=0;points=[[0,0.5],[1,0.5]];portConstraint=eastwest;strokeColor=inherit;top=0;left=0;right=0;bottom=0;" vertex="1" parent="bjHw961es4BenDyh05qI-112">
          <mxGeometry y="150" width="320" height="30" as="geometry" />
        </mxCell>
        <mxCell id="bjHw961es4BenDyh05qI-132" value="" style="shape=partialRectangle;overflow=hidden;connectable=0;fillColor=none;strokeColor=inherit;top=0;left=0;bottom=0;right=0;" vertex="1" parent="bjHw961es4BenDyh05qI-131">
          <mxGeometry width="30" height="30" as="geometry">
            <mxRectangle width="30" height="30" as="alternateBounds" />
          </mxGeometry>
        </mxCell>
        <mxCell id="bjHw961es4BenDyh05qI-133" value="difficulty_level" style="shape=partialRectangle;overflow=hidden;connectable=0;fillColor=none;align=left;strokeColor=inherit;top=0;left=0;bottom=0;right=0;spacingLeft=6;" vertex="1" parent="bjHw961es4BenDyh05qI-131">
          <mxGeometry x="30" width="290" height="30" as="geometry">
            <mxRectangle width="290" height="30" as="alternateBounds" />
          </mxGeometry>
        </mxCell>
        <mxCell id="bjHw961es4BenDyh05qI-134" value="" style="shape=tableRow;horizontal=0;startSize=0;swimlaneHead=0;swimlaneBody=0;fillColor=none;collapsible=0;dropTarget=0;points=[[0,0.5],[1,0.5]];portConstraint=eastwest;strokeColor=inherit;top=0;left=0;right=0;bottom=0;" vertex="1" parent="bjHw961es4BenDyh05qI-112">
          <mxGeometry y="180" width="320" height="30" as="geometry" />
        </mxCell>
        <mxCell id="bjHw961es4BenDyh05qI-135" value="" style="shape=partialRectangle;overflow=hidden;connectable=0;fillColor=none;strokeColor=inherit;top=0;left=0;bottom=0;right=0;" vertex="1" parent="bjHw961es4BenDyh05qI-134">
          <mxGeometry width="30" height="30" as="geometry">
            <mxRectangle width="30" height="30" as="alternateBounds" />
          </mxGeometry>
        </mxCell>
        <mxCell id="bjHw961es4BenDyh05qI-136" value="description" style="shape=partialRectangle;overflow=hidden;connectable=0;fillColor=none;align=left;strokeColor=inherit;top=0;left=0;bottom=0;right=0;spacingLeft=6;" vertex="1" parent="bjHw961es4BenDyh05qI-134">
          <mxGeometry x="30" width="290" height="30" as="geometry">
            <mxRectangle width="290" height="30" as="alternateBounds" />
          </mxGeometry>
        </mxCell>
        <mxCell id="bjHw961es4BenDyh05qI-137" value="" style="shape=tableRow;horizontal=0;startSize=0;swimlaneHead=0;swimlaneBody=0;fillColor=none;collapsible=0;dropTarget=0;points=[[0,0.5],[1,0.5]];portConstraint=eastwest;strokeColor=inherit;top=0;left=0;right=0;bottom=0;" vertex="1" parent="bjHw961es4BenDyh05qI-112">
          <mxGeometry y="210" width="320" height="30" as="geometry" />
        </mxCell>
        <mxCell id="bjHw961es4BenDyh05qI-138" value="" style="shape=partialRectangle;overflow=hidden;connectable=0;fillColor=none;strokeColor=inherit;top=0;left=0;bottom=0;right=0;" vertex="1" parent="bjHw961es4BenDyh05qI-137">
          <mxGeometry width="30" height="30" as="geometry">
            <mxRectangle width="30" height="30" as="alternateBounds" />
          </mxGeometry>
        </mxCell>
        <mxCell id="bjHw961es4BenDyh05qI-139" value="tip1" style="shape=partialRectangle;overflow=hidden;connectable=0;fillColor=none;align=left;strokeColor=inherit;top=0;left=0;bottom=0;right=0;spacingLeft=6;" vertex="1" parent="bjHw961es4BenDyh05qI-137">
          <mxGeometry x="30" width="290" height="30" as="geometry">
            <mxRectangle width="290" height="30" as="alternateBounds" />
          </mxGeometry>
        </mxCell>
        <mxCell id="bjHw961es4BenDyh05qI-140" value="" style="shape=tableRow;horizontal=0;startSize=0;swimlaneHead=0;swimlaneBody=0;fillColor=none;collapsible=0;dropTarget=0;points=[[0,0.5],[1,0.5]];portConstraint=eastwest;strokeColor=inherit;top=0;left=0;right=0;bottom=0;" vertex="1" parent="bjHw961es4BenDyh05qI-112">
          <mxGeometry y="240" width="320" height="30" as="geometry" />
        </mxCell>
        <mxCell id="bjHw961es4BenDyh05qI-141" value="" style="shape=partialRectangle;overflow=hidden;connectable=0;fillColor=none;strokeColor=inherit;top=0;left=0;bottom=0;right=0;" vertex="1" parent="bjHw961es4BenDyh05qI-140">
          <mxGeometry width="30" height="30" as="geometry">
            <mxRectangle width="30" height="30" as="alternateBounds" />
          </mxGeometry>
        </mxCell>
        <mxCell id="bjHw961es4BenDyh05qI-142" value="tip2" style="shape=partialRectangle;overflow=hidden;connectable=0;fillColor=none;align=left;strokeColor=inherit;top=0;left=0;bottom=0;right=0;spacingLeft=6;" vertex="1" parent="bjHw961es4BenDyh05qI-140">
          <mxGeometry x="30" width="290" height="30" as="geometry">
            <mxRectangle width="290" height="30" as="alternateBounds" />
          </mxGeometry>
        </mxCell>
        <mxCell id="bjHw961es4BenDyh05qI-143" value="" style="shape=tableRow;horizontal=0;startSize=0;swimlaneHead=0;swimlaneBody=0;fillColor=none;collapsible=0;dropTarget=0;points=[[0,0.5],[1,0.5]];portConstraint=eastwest;strokeColor=inherit;top=0;left=0;right=0;bottom=0;" vertex="1" parent="bjHw961es4BenDyh05qI-112">
          <mxGeometry y="270" width="320" height="30" as="geometry" />
        </mxCell>
        <mxCell id="bjHw961es4BenDyh05qI-144" value="" style="shape=partialRectangle;overflow=hidden;connectable=0;fillColor=none;strokeColor=inherit;top=0;left=0;bottom=0;right=0;" vertex="1" parent="bjHw961es4BenDyh05qI-143">
          <mxGeometry width="30" height="30" as="geometry">
            <mxRectangle width="30" height="30" as="alternateBounds" />
          </mxGeometry>
        </mxCell>
        <mxCell id="bjHw961es4BenDyh05qI-145" value="tip3" style="shape=partialRectangle;overflow=hidden;connectable=0;fillColor=none;align=left;strokeColor=inherit;top=0;left=0;bottom=0;right=0;spacingLeft=6;" vertex="1" parent="bjHw961es4BenDyh05qI-143">
          <mxGeometry x="30" width="290" height="30" as="geometry">
            <mxRectangle width="290" height="30" as="alternateBounds" />
          </mxGeometry>
        </mxCell>
        <mxCell id="bjHw961es4BenDyh05qI-146" value="" style="shape=tableRow;horizontal=0;startSize=0;swimlaneHead=0;swimlaneBody=0;fillColor=none;collapsible=0;dropTarget=0;points=[[0,0.5],[1,0.5]];portConstraint=eastwest;strokeColor=inherit;top=0;left=0;right=0;bottom=0;" vertex="1" parent="bjHw961es4BenDyh05qI-112">
          <mxGeometry y="300" width="320" height="30" as="geometry" />
        </mxCell>
        <mxCell id="bjHw961es4BenDyh05qI-147" value="" style="shape=partialRectangle;overflow=hidden;connectable=0;fillColor=none;strokeColor=inherit;top=0;left=0;bottom=0;right=0;" vertex="1" parent="bjHw961es4BenDyh05qI-146">
          <mxGeometry width="30" height="30" as="geometry">
            <mxRectangle width="30" height="30" as="alternateBounds" />
          </mxGeometry>
        </mxCell>
        <mxCell id="bjHw961es4BenDyh05qI-148" value="cooking_time" style="shape=partialRectangle;overflow=hidden;connectable=0;fillColor=none;align=left;strokeColor=inherit;top=0;left=0;bottom=0;right=0;spacingLeft=6;" vertex="1" parent="bjHw961es4BenDyh05qI-146">
          <mxGeometry x="30" width="290" height="30" as="geometry">
            <mxRectangle width="290" height="30" as="alternateBounds" />
          </mxGeometry>
        </mxCell>
        <mxCell id="bjHw961es4BenDyh05qI-149" value="" style="shape=tableRow;horizontal=0;startSize=0;swimlaneHead=0;swimlaneBody=0;fillColor=none;collapsible=0;dropTarget=0;points=[[0,0.5],[1,0.5]];portConstraint=eastwest;strokeColor=inherit;top=0;left=0;right=0;bottom=0;" vertex="1" parent="bjHw961es4BenDyh05qI-112">
          <mxGeometry y="330" width="320" height="30" as="geometry" />
        </mxCell>
        <mxCell id="bjHw961es4BenDyh05qI-150" value="" style="shape=partialRectangle;overflow=hidden;connectable=0;fillColor=none;strokeColor=inherit;top=0;left=0;bottom=0;right=0;" vertex="1" parent="bjHw961es4BenDyh05qI-149">
          <mxGeometry width="30" height="30" as="geometry">
            <mxRectangle width="30" height="30" as="alternateBounds" />
          </mxGeometry>
        </mxCell>
        <mxCell id="bjHw961es4BenDyh05qI-151" value="prep_time" style="shape=partialRectangle;overflow=hidden;connectable=0;fillColor=none;align=left;strokeColor=inherit;top=0;left=0;bottom=0;right=0;spacingLeft=6;" vertex="1" parent="bjHw961es4BenDyh05qI-149">
          <mxGeometry x="30" width="290" height="30" as="geometry">
            <mxRectangle width="290" height="30" as="alternateBounds" />
          </mxGeometry>
        </mxCell>
        <mxCell id="bjHw961es4BenDyh05qI-152" value="" style="shape=tableRow;horizontal=0;startSize=0;swimlaneHead=0;swimlaneBody=0;fillColor=none;collapsible=0;dropTarget=0;points=[[0,0.5],[1,0.5]];portConstraint=eastwest;strokeColor=inherit;top=0;left=0;right=0;bottom=0;" vertex="1" parent="bjHw961es4BenDyh05qI-112">
          <mxGeometry y="360" width="320" height="30" as="geometry" />
        </mxCell>
        <mxCell id="bjHw961es4BenDyh05qI-153" value="" style="shape=partialRectangle;overflow=hidden;connectable=0;fillColor=none;strokeColor=inherit;top=0;left=0;bottom=0;right=0;" vertex="1" parent="bjHw961es4BenDyh05qI-152">
          <mxGeometry width="30" height="30" as="geometry">
            <mxRectangle width="30" height="30" as="alternateBounds" />
          </mxGeometry>
        </mxCell>
        <mxCell id="bjHw961es4BenDyh05qI-154" value="portions" style="shape=partialRectangle;overflow=hidden;connectable=0;fillColor=none;align=left;strokeColor=inherit;top=0;left=0;bottom=0;right=0;spacingLeft=6;" vertex="1" parent="bjHw961es4BenDyh05qI-152">
          <mxGeometry x="30" width="290" height="30" as="geometry">
            <mxRectangle width="290" height="30" as="alternateBounds" />
          </mxGeometry>
        </mxCell>
        <mxCell id="bjHw961es4BenDyh05qI-155" value="" style="shape=tableRow;horizontal=0;startSize=0;swimlaneHead=0;swimlaneBody=0;fillColor=none;collapsible=0;dropTarget=0;points=[[0,0.5],[1,0.5]];portConstraint=eastwest;strokeColor=inherit;top=0;left=0;right=0;bottom=0;" vertex="1" parent="bjHw961es4BenDyh05qI-112">
          <mxGeometry y="390" width="320" height="30" as="geometry" />
        </mxCell>
        <mxCell id="bjHw961es4BenDyh05qI-156" value="" style="shape=partialRectangle;overflow=hidden;connectable=0;fillColor=none;strokeColor=inherit;top=0;left=0;bottom=0;right=0;" vertex="1" parent="bjHw961es4BenDyh05qI-155">
          <mxGeometry width="30" height="30" as="geometry">
            <mxRectangle width="30" height="30" as="alternateBounds" />
          </mxGeometry>
        </mxCell>
        <mxCell id="bjHw961es4BenDyh05qI-157" value="basic_ingredient_id" style="shape=partialRectangle;overflow=hidden;connectable=0;fillColor=none;align=left;strokeColor=inherit;top=0;left=0;bottom=0;right=0;spacingLeft=6;" vertex="1" parent="bjHw961es4BenDyh05qI-155">
          <mxGeometry x="30" width="290" height="30" as="geometry">
            <mxRectangle width="290" height="30" as="alternateBounds" />
          </mxGeometry>
        </mxCell>
        <mxCell id="bjHw961es4BenDyh05qI-209" value="Meal_Type" style="shape=table;startSize=30;container=1;collapsible=1;childLayout=tableLayout;fixedRows=1;rowLines=0;fontStyle=1;align=center;resizeLast=1;" vertex="1" parent="1">
          <mxGeometry x="-2045" y="-80" width="170" height="90" as="geometry" />
        </mxCell>
        <mxCell id="bjHw961es4BenDyh05qI-210" value="" style="shape=tableRow;horizontal=0;startSize=0;swimlaneHead=0;swimlaneBody=0;fillColor=none;collapsible=0;dropTarget=0;points=[[0,0.5],[1,0.5]];portConstraint=eastwest;strokeColor=inherit;top=0;left=0;right=0;bottom=1;" vertex="1" parent="bjHw961es4BenDyh05qI-209">
          <mxGeometry y="30" width="170" height="30" as="geometry" />
        </mxCell>
        <mxCell id="bjHw961es4BenDyh05qI-211" value="PK" style="shape=partialRectangle;overflow=hidden;connectable=0;fillColor=none;strokeColor=inherit;top=0;left=0;bottom=0;right=0;fontStyle=1;" vertex="1" parent="bjHw961es4BenDyh05qI-210">
          <mxGeometry width="30" height="30" as="geometry">
            <mxRectangle width="30" height="30" as="alternateBounds" />
          </mxGeometry>
        </mxCell>
        <mxCell id="bjHw961es4BenDyh05qI-212" value="meal_type_id" style="shape=partialRectangle;overflow=hidden;connectable=0;fillColor=none;align=left;strokeColor=inherit;top=0;left=0;bottom=0;right=0;spacingLeft=6;fontStyle=5;" vertex="1" parent="bjHw961es4BenDyh05qI-210">
          <mxGeometry x="30" width="140" height="30" as="geometry">
            <mxRectangle width="140" height="30" as="alternateBounds" />
          </mxGeometry>
        </mxCell>
        <mxCell id="bjHw961es4BenDyh05qI-213" value="" style="shape=tableRow;horizontal=0;startSize=0;swimlaneHead=0;swimlaneBody=0;fillColor=none;collapsible=0;dropTarget=0;points=[[0,0.5],[1,0.5]];portConstraint=eastwest;strokeColor=inherit;top=0;left=0;right=0;bottom=0;" vertex="1" parent="bjHw961es4BenDyh05qI-209">
          <mxGeometry y="60" width="170" height="30" as="geometry" />
        </mxCell>
        <mxCell id="bjHw961es4BenDyh05qI-214" value="" style="shape=partialRectangle;overflow=hidden;connectable=0;fillColor=none;strokeColor=inherit;top=0;left=0;bottom=0;right=0;" vertex="1" parent="bjHw961es4BenDyh05qI-213">
          <mxGeometry width="30" height="30" as="geometry">
            <mxRectangle width="30" height="30" as="alternateBounds" />
          </mxGeometry>
        </mxCell>
        <mxCell id="bjHw961es4BenDyh05qI-215" value="meal_type" style="shape=partialRectangle;overflow=hidden;connectable=0;fillColor=none;align=left;strokeColor=inherit;top=0;left=0;bottom=0;right=0;spacingLeft=6;" vertex="1" parent="bjHw961es4BenDyh05qI-213">
          <mxGeometry x="30" width="140" height="30" as="geometry">
            <mxRectangle width="140" height="30" as="alternateBounds" />
          </mxGeometry>
        </mxCell>
        <mxCell id="bjHw961es4BenDyh05qI-216" value="Label" style="shape=table;startSize=30;container=1;collapsible=1;childLayout=tableLayout;fixedRows=1;rowLines=0;fontStyle=1;align=center;resizeLast=1;" vertex="1" parent="1">
          <mxGeometry x="-2015" y="20" width="140" height="90" as="geometry" />
        </mxCell>
        <mxCell id="bjHw961es4BenDyh05qI-217" value="" style="shape=tableRow;horizontal=0;startSize=0;swimlaneHead=0;swimlaneBody=0;fillColor=none;collapsible=0;dropTarget=0;points=[[0,0.5],[1,0.5]];portConstraint=eastwest;strokeColor=inherit;top=0;left=0;right=0;bottom=1;" vertex="1" parent="bjHw961es4BenDyh05qI-216">
          <mxGeometry y="30" width="140" height="30" as="geometry" />
        </mxCell>
        <mxCell id="bjHw961es4BenDyh05qI-218" value="PK" style="shape=partialRectangle;overflow=hidden;connectable=0;fillColor=none;strokeColor=inherit;top=0;left=0;bottom=0;right=0;fontStyle=1;" vertex="1" parent="bjHw961es4BenDyh05qI-217">
          <mxGeometry width="30" height="30" as="geometry">
            <mxRectangle width="30" height="30" as="alternateBounds" />
          </mxGeometry>
        </mxCell>
        <mxCell id="bjHw961es4BenDyh05qI-219" value="label_id" style="shape=partialRectangle;overflow=hidden;connectable=0;fillColor=none;align=left;strokeColor=inherit;top=0;left=0;bottom=0;right=0;spacingLeft=6;fontStyle=5;" vertex="1" parent="bjHw961es4BenDyh05qI-217">
          <mxGeometry x="30" width="110" height="30" as="geometry">
            <mxRectangle width="110" height="30" as="alternateBounds" />
          </mxGeometry>
        </mxCell>
        <mxCell id="bjHw961es4BenDyh05qI-220" value="" style="shape=tableRow;horizontal=0;startSize=0;swimlaneHead=0;swimlaneBody=0;fillColor=none;collapsible=0;dropTarget=0;points=[[0,0.5],[1,0.5]];portConstraint=eastwest;strokeColor=inherit;top=0;left=0;right=0;bottom=0;" vertex="1" parent="bjHw961es4BenDyh05qI-216">
          <mxGeometry y="60" width="140" height="30" as="geometry" />
        </mxCell>
        <mxCell id="bjHw961es4BenDyh05qI-221" value="" style="shape=partialRectangle;overflow=hidden;connectable=0;fillColor=none;strokeColor=inherit;top=0;left=0;bottom=0;right=0;" vertex="1" parent="bjHw961es4BenDyh05qI-220">
          <mxGeometry width="30" height="30" as="geometry">
            <mxRectangle width="30" height="30" as="alternateBounds" />
          </mxGeometry>
        </mxCell>
        <mxCell id="bjHw961es4BenDyh05qI-222" value="label" style="shape=partialRectangle;overflow=hidden;connectable=0;fillColor=none;align=left;strokeColor=inherit;top=0;left=0;bottom=0;right=0;spacingLeft=6;" vertex="1" parent="bjHw961es4BenDyh05qI-220">
          <mxGeometry x="30" width="110" height="30" as="geometry">
            <mxRectangle width="110" height="30" as="alternateBounds" />
          </mxGeometry>
        </mxCell>
        <mxCell id="bjHw961es4BenDyh05qI-223" value="Equipment" style="shape=table;startSize=30;container=1;collapsible=1;childLayout=tableLayout;fixedRows=1;rowLines=0;fontStyle=1;align=center;resizeLast=1;" vertex="1" parent="1">
          <mxGeometry x="-2820" y="675.28" width="250" height="120" as="geometry" />
        </mxCell>
        <mxCell id="bjHw961es4BenDyh05qI-227" value="" style="shape=tableRow;horizontal=0;startSize=0;swimlaneHead=0;swimlaneBody=0;fillColor=none;collapsible=0;dropTarget=0;points=[[0,0.5],[1,0.5]];portConstraint=eastwest;strokeColor=inherit;top=0;left=0;right=0;bottom=1;" vertex="1" parent="bjHw961es4BenDyh05qI-223">
          <mxGeometry y="30" width="250" height="30" as="geometry" />
        </mxCell>
        <mxCell id="bjHw961es4BenDyh05qI-228" value="PK" style="shape=partialRectangle;overflow=hidden;connectable=0;fillColor=none;strokeColor=inherit;top=0;left=0;bottom=0;right=0;fontStyle=1;" vertex="1" parent="bjHw961es4BenDyh05qI-227">
          <mxGeometry width="30" height="30" as="geometry">
            <mxRectangle width="30" height="30" as="alternateBounds" />
          </mxGeometry>
        </mxCell>
        <mxCell id="bjHw961es4BenDyh05qI-229" value="equipment_id" style="shape=partialRectangle;overflow=hidden;connectable=0;fillColor=none;align=left;strokeColor=inherit;top=0;left=0;bottom=0;right=0;spacingLeft=6;fontStyle=5;" vertex="1" parent="bjHw961es4BenDyh05qI-227">
          <mxGeometry x="30" width="220" height="30" as="geometry">
            <mxRectangle width="220" height="30" as="alternateBounds" />
          </mxGeometry>
        </mxCell>
        <mxCell id="bjHw961es4BenDyh05qI-230" value="" style="shape=tableRow;horizontal=0;startSize=0;swimlaneHead=0;swimlaneBody=0;fillColor=none;collapsible=0;dropTarget=0;points=[[0,0.5],[1,0.5]];portConstraint=eastwest;strokeColor=inherit;top=0;left=0;right=0;bottom=0;" vertex="1" parent="bjHw961es4BenDyh05qI-223">
          <mxGeometry y="60" width="250" height="30" as="geometry" />
        </mxCell>
        <mxCell id="bjHw961es4BenDyh05qI-231" value="" style="shape=partialRectangle;overflow=hidden;connectable=0;fillColor=none;strokeColor=inherit;top=0;left=0;bottom=0;right=0;" vertex="1" parent="bjHw961es4BenDyh05qI-230">
          <mxGeometry width="30" height="30" as="geometry">
            <mxRectangle width="30" height="30" as="alternateBounds" />
          </mxGeometry>
        </mxCell>
        <mxCell id="bjHw961es4BenDyh05qI-232" value="name" style="shape=partialRectangle;overflow=hidden;connectable=0;fillColor=none;align=left;strokeColor=inherit;top=0;left=0;bottom=0;right=0;spacingLeft=6;" vertex="1" parent="bjHw961es4BenDyh05qI-230">
          <mxGeometry x="30" width="220" height="30" as="geometry">
            <mxRectangle width="220" height="30" as="alternateBounds" />
          </mxGeometry>
        </mxCell>
        <mxCell id="bjHw961es4BenDyh05qI-233" value="" style="shape=tableRow;horizontal=0;startSize=0;swimlaneHead=0;swimlaneBody=0;fillColor=none;collapsible=0;dropTarget=0;points=[[0,0.5],[1,0.5]];portConstraint=eastwest;strokeColor=inherit;top=0;left=0;right=0;bottom=0;" vertex="1" parent="bjHw961es4BenDyh05qI-223">
          <mxGeometry y="90" width="250" height="30" as="geometry" />
        </mxCell>
        <mxCell id="bjHw961es4BenDyh05qI-234" value="" style="shape=partialRectangle;overflow=hidden;connectable=0;fillColor=none;strokeColor=inherit;top=0;left=0;bottom=0;right=0;" vertex="1" parent="bjHw961es4BenDyh05qI-233">
          <mxGeometry width="30" height="30" as="geometry">
            <mxRectangle width="30" height="30" as="alternateBounds" />
          </mxGeometry>
        </mxCell>
        <mxCell id="bjHw961es4BenDyh05qI-235" value="description" style="shape=partialRectangle;overflow=hidden;connectable=0;fillColor=none;align=left;strokeColor=inherit;top=0;left=0;bottom=0;right=0;spacingLeft=6;" vertex="1" parent="bjHw961es4BenDyh05qI-233">
          <mxGeometry x="30" width="220" height="30" as="geometry">
            <mxRectangle width="220" height="30" as="alternateBounds" />
          </mxGeometry>
        </mxCell>
        <mxCell id="bjHw961es4BenDyh05qI-251" value="Step" style="shape=table;startSize=30;container=1;collapsible=1;childLayout=tableLayout;fixedRows=1;rowLines=0;fontStyle=1;align=center;resizeLast=1;" vertex="1" parent="1">
          <mxGeometry x="-2025" y="130" width="150" height="120" as="geometry" />
        </mxCell>
        <mxCell id="bjHw961es4BenDyh05qI-255" value="" style="shape=tableRow;horizontal=0;startSize=0;swimlaneHead=0;swimlaneBody=0;fillColor=none;collapsible=0;dropTarget=0;points=[[0,0.5],[1,0.5]];portConstraint=eastwest;strokeColor=inherit;top=0;left=0;right=0;bottom=1;" vertex="1" parent="bjHw961es4BenDyh05qI-251">
          <mxGeometry y="30" width="150" height="30" as="geometry" />
        </mxCell>
        <mxCell id="bjHw961es4BenDyh05qI-256" value="PK" style="shape=partialRectangle;overflow=hidden;connectable=0;fillColor=none;strokeColor=inherit;top=0;left=0;bottom=0;right=0;fontStyle=1;" vertex="1" parent="bjHw961es4BenDyh05qI-255">
          <mxGeometry width="30" height="30" as="geometry">
            <mxRectangle width="30" height="30" as="alternateBounds" />
          </mxGeometry>
        </mxCell>
        <mxCell id="bjHw961es4BenDyh05qI-257" value="step_id" style="shape=partialRectangle;overflow=hidden;connectable=0;fillColor=none;align=left;strokeColor=inherit;top=0;left=0;bottom=0;right=0;spacingLeft=6;fontStyle=5;" vertex="1" parent="bjHw961es4BenDyh05qI-255">
          <mxGeometry x="30" width="120" height="30" as="geometry">
            <mxRectangle width="120" height="30" as="alternateBounds" />
          </mxGeometry>
        </mxCell>
        <mxCell id="bjHw961es4BenDyh05qI-258" value="" style="shape=tableRow;horizontal=0;startSize=0;swimlaneHead=0;swimlaneBody=0;fillColor=none;collapsible=0;dropTarget=0;points=[[0,0.5],[1,0.5]];portConstraint=eastwest;strokeColor=inherit;top=0;left=0;right=0;bottom=0;" vertex="1" parent="bjHw961es4BenDyh05qI-251">
          <mxGeometry y="60" width="150" height="30" as="geometry" />
        </mxCell>
        <mxCell id="bjHw961es4BenDyh05qI-259" value="" style="shape=partialRectangle;overflow=hidden;connectable=0;fillColor=none;strokeColor=inherit;top=0;left=0;bottom=0;right=0;" vertex="1" parent="bjHw961es4BenDyh05qI-258">
          <mxGeometry width="30" height="30" as="geometry">
            <mxRectangle width="30" height="30" as="alternateBounds" />
          </mxGeometry>
        </mxCell>
        <mxCell id="bjHw961es4BenDyh05qI-260" value="order_number" style="shape=partialRectangle;overflow=hidden;connectable=0;fillColor=none;align=left;strokeColor=inherit;top=0;left=0;bottom=0;right=0;spacingLeft=6;" vertex="1" parent="bjHw961es4BenDyh05qI-258">
          <mxGeometry x="30" width="120" height="30" as="geometry">
            <mxRectangle width="120" height="30" as="alternateBounds" />
          </mxGeometry>
        </mxCell>
        <mxCell id="bjHw961es4BenDyh05qI-261" value="" style="shape=tableRow;horizontal=0;startSize=0;swimlaneHead=0;swimlaneBody=0;fillColor=none;collapsible=0;dropTarget=0;points=[[0,0.5],[1,0.5]];portConstraint=eastwest;strokeColor=inherit;top=0;left=0;right=0;bottom=0;" vertex="1" parent="bjHw961es4BenDyh05qI-251">
          <mxGeometry y="90" width="150" height="30" as="geometry" />
        </mxCell>
        <mxCell id="bjHw961es4BenDyh05qI-262" value="" style="shape=partialRectangle;overflow=hidden;connectable=0;fillColor=none;strokeColor=inherit;top=0;left=0;bottom=0;right=0;" vertex="1" parent="bjHw961es4BenDyh05qI-261">
          <mxGeometry width="30" height="30" as="geometry">
            <mxRectangle width="30" height="30" as="alternateBounds" />
          </mxGeometry>
        </mxCell>
        <mxCell id="bjHw961es4BenDyh05qI-263" value="description" style="shape=partialRectangle;overflow=hidden;connectable=0;fillColor=none;align=left;strokeColor=inherit;top=0;left=0;bottom=0;right=0;spacingLeft=6;" vertex="1" parent="bjHw961es4BenDyh05qI-261">
          <mxGeometry x="30" width="120" height="30" as="geometry">
            <mxRectangle width="120" height="30" as="alternateBounds" />
          </mxGeometry>
        </mxCell>
        <mxCell id="bjHw961es4BenDyh05qI-282" value="Thematic_Unit" style="shape=table;startSize=30;container=1;collapsible=1;childLayout=tableLayout;fixedRows=1;rowLines=0;fontStyle=1;align=center;resizeLast=1;" vertex="1" parent="1">
          <mxGeometry x="-3090" y="615.28" width="210" height="120" as="geometry" />
        </mxCell>
        <mxCell id="bjHw961es4BenDyh05qI-286" value="" style="shape=tableRow;horizontal=0;startSize=0;swimlaneHead=0;swimlaneBody=0;fillColor=none;collapsible=0;dropTarget=0;points=[[0,0.5],[1,0.5]];portConstraint=eastwest;strokeColor=inherit;top=0;left=0;right=0;bottom=1;" vertex="1" parent="bjHw961es4BenDyh05qI-282">
          <mxGeometry y="30" width="210" height="30" as="geometry" />
        </mxCell>
        <mxCell id="bjHw961es4BenDyh05qI-287" value="PK" style="shape=partialRectangle;overflow=hidden;connectable=0;fillColor=none;strokeColor=inherit;top=0;left=0;bottom=0;right=0;fontStyle=1;" vertex="1" parent="bjHw961es4BenDyh05qI-286">
          <mxGeometry width="30" height="30" as="geometry">
            <mxRectangle width="30" height="30" as="alternateBounds" />
          </mxGeometry>
        </mxCell>
        <mxCell id="bjHw961es4BenDyh05qI-288" value="thematic_unit_id" style="shape=partialRectangle;overflow=hidden;connectable=0;fillColor=none;align=left;strokeColor=inherit;top=0;left=0;bottom=0;right=0;spacingLeft=6;fontStyle=5;" vertex="1" parent="bjHw961es4BenDyh05qI-286">
          <mxGeometry x="30" width="180" height="30" as="geometry">
            <mxRectangle width="180" height="30" as="alternateBounds" />
          </mxGeometry>
        </mxCell>
        <mxCell id="bjHw961es4BenDyh05qI-289" value="" style="shape=tableRow;horizontal=0;startSize=0;swimlaneHead=0;swimlaneBody=0;fillColor=none;collapsible=0;dropTarget=0;points=[[0,0.5],[1,0.5]];portConstraint=eastwest;strokeColor=inherit;top=0;left=0;right=0;bottom=0;" vertex="1" parent="bjHw961es4BenDyh05qI-282">
          <mxGeometry y="60" width="210" height="30" as="geometry" />
        </mxCell>
        <mxCell id="bjHw961es4BenDyh05qI-290" value="" style="shape=partialRectangle;overflow=hidden;connectable=0;fillColor=none;strokeColor=inherit;top=0;left=0;bottom=0;right=0;" vertex="1" parent="bjHw961es4BenDyh05qI-289">
          <mxGeometry width="30" height="30" as="geometry">
            <mxRectangle width="30" height="30" as="alternateBounds" />
          </mxGeometry>
        </mxCell>
        <mxCell id="bjHw961es4BenDyh05qI-291" value="name" style="shape=partialRectangle;overflow=hidden;connectable=0;fillColor=none;align=left;strokeColor=inherit;top=0;left=0;bottom=0;right=0;spacingLeft=6;" vertex="1" parent="bjHw961es4BenDyh05qI-289">
          <mxGeometry x="30" width="180" height="30" as="geometry">
            <mxRectangle width="180" height="30" as="alternateBounds" />
          </mxGeometry>
        </mxCell>
        <mxCell id="bjHw961es4BenDyh05qI-292" value="" style="shape=tableRow;horizontal=0;startSize=0;swimlaneHead=0;swimlaneBody=0;fillColor=none;collapsible=0;dropTarget=0;points=[[0,0.5],[1,0.5]];portConstraint=eastwest;strokeColor=inherit;top=0;left=0;right=0;bottom=0;" vertex="1" parent="bjHw961es4BenDyh05qI-282">
          <mxGeometry y="90" width="210" height="30" as="geometry" />
        </mxCell>
        <mxCell id="bjHw961es4BenDyh05qI-293" value="" style="shape=partialRectangle;overflow=hidden;connectable=0;fillColor=none;strokeColor=inherit;top=0;left=0;bottom=0;right=0;" vertex="1" parent="bjHw961es4BenDyh05qI-292">
          <mxGeometry width="30" height="30" as="geometry">
            <mxRectangle width="30" height="30" as="alternateBounds" />
          </mxGeometry>
        </mxCell>
        <mxCell id="bjHw961es4BenDyh05qI-294" value="description" style="shape=partialRectangle;overflow=hidden;connectable=0;fillColor=none;align=left;strokeColor=inherit;top=0;left=0;bottom=0;right=0;spacingLeft=6;" vertex="1" parent="bjHw961es4BenDyh05qI-292">
          <mxGeometry x="30" width="180" height="30" as="geometry">
            <mxRectangle width="180" height="30" as="alternateBounds" />
          </mxGeometry>
        </mxCell>
        <mxCell id="bjHw961es4BenDyh05qI-310" value="Cook" style="shape=table;startSize=30;container=1;collapsible=1;childLayout=tableLayout;fixedRows=1;rowLines=0;fontStyle=1;align=center;resizeLast=1;" vertex="1" parent="1">
          <mxGeometry x="-3430" y="-505" width="320" height="300" as="geometry" />
        </mxCell>
        <mxCell id="bjHw961es4BenDyh05qI-317" value="" style="shape=tableRow;horizontal=0;startSize=0;swimlaneHead=0;swimlaneBody=0;fillColor=none;collapsible=0;dropTarget=0;points=[[0,0.5],[1,0.5]];portConstraint=eastwest;strokeColor=inherit;top=0;left=0;right=0;bottom=1;" vertex="1" parent="bjHw961es4BenDyh05qI-310">
          <mxGeometry y="30" width="320" height="30" as="geometry" />
        </mxCell>
        <mxCell id="bjHw961es4BenDyh05qI-318" value="PK" style="shape=partialRectangle;overflow=hidden;connectable=0;fillColor=none;strokeColor=inherit;top=0;left=0;bottom=0;right=0;fontStyle=1;" vertex="1" parent="bjHw961es4BenDyh05qI-317">
          <mxGeometry width="30" height="30" as="geometry">
            <mxRectangle width="30" height="30" as="alternateBounds" />
          </mxGeometry>
        </mxCell>
        <mxCell id="bjHw961es4BenDyh05qI-319" value="cook_id" style="shape=partialRectangle;overflow=hidden;connectable=0;fillColor=none;align=left;strokeColor=inherit;top=0;left=0;bottom=0;right=0;spacingLeft=6;fontStyle=5;" vertex="1" parent="bjHw961es4BenDyh05qI-317">
          <mxGeometry x="30" width="290" height="30" as="geometry">
            <mxRectangle width="290" height="30" as="alternateBounds" />
          </mxGeometry>
        </mxCell>
        <mxCell id="bjHw961es4BenDyh05qI-320" value="" style="shape=tableRow;horizontal=0;startSize=0;swimlaneHead=0;swimlaneBody=0;fillColor=none;collapsible=0;dropTarget=0;points=[[0,0.5],[1,0.5]];portConstraint=eastwest;strokeColor=inherit;top=0;left=0;right=0;bottom=0;" vertex="1" parent="bjHw961es4BenDyh05qI-310">
          <mxGeometry y="60" width="320" height="30" as="geometry" />
        </mxCell>
        <mxCell id="bjHw961es4BenDyh05qI-321" value="" style="shape=partialRectangle;overflow=hidden;connectable=0;fillColor=none;strokeColor=inherit;top=0;left=0;bottom=0;right=0;" vertex="1" parent="bjHw961es4BenDyh05qI-320">
          <mxGeometry width="30" height="30" as="geometry">
            <mxRectangle width="30" height="30" as="alternateBounds" />
          </mxGeometry>
        </mxCell>
        <mxCell id="bjHw961es4BenDyh05qI-322" value="active" style="shape=partialRectangle;overflow=hidden;connectable=0;fillColor=none;align=left;strokeColor=inherit;top=0;left=0;bottom=0;right=0;spacingLeft=6;" vertex="1" parent="bjHw961es4BenDyh05qI-320">
          <mxGeometry x="30" width="290" height="30" as="geometry">
            <mxRectangle width="290" height="30" as="alternateBounds" />
          </mxGeometry>
        </mxCell>
        <mxCell id="bjHw961es4BenDyh05qI-323" value="" style="shape=tableRow;horizontal=0;startSize=0;swimlaneHead=0;swimlaneBody=0;fillColor=none;collapsible=0;dropTarget=0;points=[[0,0.5],[1,0.5]];portConstraint=eastwest;strokeColor=inherit;top=0;left=0;right=0;bottom=0;" vertex="1" parent="bjHw961es4BenDyh05qI-310">
          <mxGeometry y="90" width="320" height="30" as="geometry" />
        </mxCell>
        <mxCell id="bjHw961es4BenDyh05qI-324" value="" style="shape=partialRectangle;overflow=hidden;connectable=0;fillColor=none;strokeColor=inherit;top=0;left=0;bottom=0;right=0;" vertex="1" parent="bjHw961es4BenDyh05qI-323">
          <mxGeometry width="30" height="30" as="geometry">
            <mxRectangle width="30" height="30" as="alternateBounds" />
          </mxGeometry>
        </mxCell>
        <mxCell id="bjHw961es4BenDyh05qI-325" value="first_name" style="shape=partialRectangle;overflow=hidden;connectable=0;fillColor=none;align=left;strokeColor=inherit;top=0;left=0;bottom=0;right=0;spacingLeft=6;" vertex="1" parent="bjHw961es4BenDyh05qI-323">
          <mxGeometry x="30" width="290" height="30" as="geometry">
            <mxRectangle width="290" height="30" as="alternateBounds" />
          </mxGeometry>
        </mxCell>
        <mxCell id="bjHw961es4BenDyh05qI-326" value="" style="shape=tableRow;horizontal=0;startSize=0;swimlaneHead=0;swimlaneBody=0;fillColor=none;collapsible=0;dropTarget=0;points=[[0,0.5],[1,0.5]];portConstraint=eastwest;strokeColor=inherit;top=0;left=0;right=0;bottom=0;" vertex="1" parent="bjHw961es4BenDyh05qI-310">
          <mxGeometry y="120" width="320" height="30" as="geometry" />
        </mxCell>
        <mxCell id="bjHw961es4BenDyh05qI-327" value="" style="shape=partialRectangle;overflow=hidden;connectable=0;fillColor=none;strokeColor=inherit;top=0;left=0;bottom=0;right=0;" vertex="1" parent="bjHw961es4BenDyh05qI-326">
          <mxGeometry width="30" height="30" as="geometry">
            <mxRectangle width="30" height="30" as="alternateBounds" />
          </mxGeometry>
        </mxCell>
        <mxCell id="bjHw961es4BenDyh05qI-328" value="last_name" style="shape=partialRectangle;overflow=hidden;connectable=0;fillColor=none;align=left;strokeColor=inherit;top=0;left=0;bottom=0;right=0;spacingLeft=6;" vertex="1" parent="bjHw961es4BenDyh05qI-326">
          <mxGeometry x="30" width="290" height="30" as="geometry">
            <mxRectangle width="290" height="30" as="alternateBounds" />
          </mxGeometry>
        </mxCell>
        <mxCell id="bjHw961es4BenDyh05qI-329" value="" style="shape=tableRow;horizontal=0;startSize=0;swimlaneHead=0;swimlaneBody=0;fillColor=none;collapsible=0;dropTarget=0;points=[[0,0.5],[1,0.5]];portConstraint=eastwest;strokeColor=inherit;top=0;left=0;right=0;bottom=0;" vertex="1" parent="bjHw961es4BenDyh05qI-310">
          <mxGeometry y="150" width="320" height="30" as="geometry" />
        </mxCell>
        <mxCell id="bjHw961es4BenDyh05qI-330" value="" style="shape=partialRectangle;overflow=hidden;connectable=0;fillColor=none;strokeColor=inherit;top=0;left=0;bottom=0;right=0;" vertex="1" parent="bjHw961es4BenDyh05qI-329">
          <mxGeometry width="30" height="30" as="geometry">
            <mxRectangle width="30" height="30" as="alternateBounds" />
          </mxGeometry>
        </mxCell>
        <mxCell id="bjHw961es4BenDyh05qI-331" value="phone_number" style="shape=partialRectangle;overflow=hidden;connectable=0;fillColor=none;align=left;strokeColor=inherit;top=0;left=0;bottom=0;right=0;spacingLeft=6;" vertex="1" parent="bjHw961es4BenDyh05qI-329">
          <mxGeometry x="30" width="290" height="30" as="geometry">
            <mxRectangle width="290" height="30" as="alternateBounds" />
          </mxGeometry>
        </mxCell>
        <mxCell id="bjHw961es4BenDyh05qI-332" value="" style="shape=tableRow;horizontal=0;startSize=0;swimlaneHead=0;swimlaneBody=0;fillColor=none;collapsible=0;dropTarget=0;points=[[0,0.5],[1,0.5]];portConstraint=eastwest;strokeColor=inherit;top=0;left=0;right=0;bottom=0;" vertex="1" parent="bjHw961es4BenDyh05qI-310">
          <mxGeometry y="180" width="320" height="30" as="geometry" />
        </mxCell>
        <mxCell id="bjHw961es4BenDyh05qI-333" value="" style="shape=partialRectangle;overflow=hidden;connectable=0;fillColor=none;strokeColor=inherit;top=0;left=0;bottom=0;right=0;" vertex="1" parent="bjHw961es4BenDyh05qI-332">
          <mxGeometry width="30" height="30" as="geometry">
            <mxRectangle width="30" height="30" as="alternateBounds" />
          </mxGeometry>
        </mxCell>
        <mxCell id="bjHw961es4BenDyh05qI-334" value="date_of_birth" style="shape=partialRectangle;overflow=hidden;connectable=0;fillColor=none;align=left;strokeColor=inherit;top=0;left=0;bottom=0;right=0;spacingLeft=6;" vertex="1" parent="bjHw961es4BenDyh05qI-332">
          <mxGeometry x="30" width="290" height="30" as="geometry">
            <mxRectangle width="290" height="30" as="alternateBounds" />
          </mxGeometry>
        </mxCell>
        <mxCell id="bjHw961es4BenDyh05qI-335" value="" style="shape=tableRow;horizontal=0;startSize=0;swimlaneHead=0;swimlaneBody=0;fillColor=none;collapsible=0;dropTarget=0;points=[[0,0.5],[1,0.5]];portConstraint=eastwest;strokeColor=inherit;top=0;left=0;right=0;bottom=0;" vertex="1" parent="bjHw961es4BenDyh05qI-310">
          <mxGeometry y="210" width="320" height="30" as="geometry" />
        </mxCell>
        <mxCell id="bjHw961es4BenDyh05qI-336" value="" style="shape=partialRectangle;overflow=hidden;connectable=0;fillColor=none;strokeColor=inherit;top=0;left=0;bottom=0;right=0;" vertex="1" parent="bjHw961es4BenDyh05qI-335">
          <mxGeometry width="30" height="30" as="geometry">
            <mxRectangle width="30" height="30" as="alternateBounds" />
          </mxGeometry>
        </mxCell>
        <mxCell id="bjHw961es4BenDyh05qI-337" value="age" style="shape=partialRectangle;overflow=hidden;connectable=0;fillColor=none;align=left;strokeColor=inherit;top=0;left=0;bottom=0;right=0;spacingLeft=6;" vertex="1" parent="bjHw961es4BenDyh05qI-335">
          <mxGeometry x="30" width="290" height="30" as="geometry">
            <mxRectangle width="290" height="30" as="alternateBounds" />
          </mxGeometry>
        </mxCell>
        <mxCell id="bjHw961es4BenDyh05qI-338" value="" style="shape=tableRow;horizontal=0;startSize=0;swimlaneHead=0;swimlaneBody=0;fillColor=none;collapsible=0;dropTarget=0;points=[[0,0.5],[1,0.5]];portConstraint=eastwest;strokeColor=inherit;top=0;left=0;right=0;bottom=0;" vertex="1" parent="bjHw961es4BenDyh05qI-310">
          <mxGeometry y="240" width="320" height="30" as="geometry" />
        </mxCell>
        <mxCell id="bjHw961es4BenDyh05qI-339" value="" style="shape=partialRectangle;overflow=hidden;connectable=0;fillColor=none;strokeColor=inherit;top=0;left=0;bottom=0;right=0;" vertex="1" parent="bjHw961es4BenDyh05qI-338">
          <mxGeometry width="30" height="30" as="geometry">
            <mxRectangle width="30" height="30" as="alternateBounds" />
          </mxGeometry>
        </mxCell>
        <mxCell id="bjHw961es4BenDyh05qI-340" value="years_of_experience" style="shape=partialRectangle;overflow=hidden;connectable=0;fillColor=none;align=left;strokeColor=inherit;top=0;left=0;bottom=0;right=0;spacingLeft=6;" vertex="1" parent="bjHw961es4BenDyh05qI-338">
          <mxGeometry x="30" width="290" height="30" as="geometry">
            <mxRectangle width="290" height="30" as="alternateBounds" />
          </mxGeometry>
        </mxCell>
        <mxCell id="bjHw961es4BenDyh05qI-341" value="" style="shape=tableRow;horizontal=0;startSize=0;swimlaneHead=0;swimlaneBody=0;fillColor=none;collapsible=0;dropTarget=0;points=[[0,0.5],[1,0.5]];portConstraint=eastwest;strokeColor=inherit;top=0;left=0;right=0;bottom=0;" vertex="1" parent="bjHw961es4BenDyh05qI-310">
          <mxGeometry y="270" width="320" height="30" as="geometry" />
        </mxCell>
        <mxCell id="bjHw961es4BenDyh05qI-342" value="" style="shape=partialRectangle;overflow=hidden;connectable=0;fillColor=none;strokeColor=inherit;top=0;left=0;bottom=0;right=0;" vertex="1" parent="bjHw961es4BenDyh05qI-341">
          <mxGeometry width="30" height="30" as="geometry">
            <mxRectangle width="30" height="30" as="alternateBounds" />
          </mxGeometry>
        </mxCell>
        <mxCell id="bjHw961es4BenDyh05qI-343" value="chef_status" style="shape=partialRectangle;overflow=hidden;connectable=0;fillColor=none;align=left;strokeColor=inherit;top=0;left=0;bottom=0;right=0;spacingLeft=6;" vertex="1" parent="bjHw961es4BenDyh05qI-341">
          <mxGeometry x="30" width="290" height="30" as="geometry">
            <mxRectangle width="290" height="30" as="alternateBounds" />
          </mxGeometry>
        </mxCell>
        <mxCell id="bjHw961es4BenDyh05qI-359" value="Nutritional_Info" style="shape=table;startSize=30;container=1;collapsible=1;childLayout=tableLayout;fixedRows=1;rowLines=0;fontStyle=1;align=center;resizeLast=1;" vertex="1" parent="1">
          <mxGeometry x="-2075" y="280" width="200" height="180" as="geometry" />
        </mxCell>
        <mxCell id="bjHw961es4BenDyh05qI-363" value="" style="shape=tableRow;horizontal=0;startSize=0;swimlaneHead=0;swimlaneBody=0;fillColor=none;collapsible=0;dropTarget=0;points=[[0,0.5],[1,0.5]];portConstraint=eastwest;strokeColor=inherit;top=0;left=0;right=0;bottom=1;" vertex="1" parent="bjHw961es4BenDyh05qI-359">
          <mxGeometry y="30" width="200" height="30" as="geometry" />
        </mxCell>
        <mxCell id="bjHw961es4BenDyh05qI-364" value="PK" style="shape=partialRectangle;overflow=hidden;connectable=0;fillColor=none;strokeColor=inherit;top=0;left=0;bottom=0;right=0;fontStyle=1;" vertex="1" parent="bjHw961es4BenDyh05qI-363">
          <mxGeometry width="30" height="30" as="geometry">
            <mxRectangle width="30" height="30" as="alternateBounds" />
          </mxGeometry>
        </mxCell>
        <mxCell id="bjHw961es4BenDyh05qI-365" value="nutritional_info_id" style="shape=partialRectangle;overflow=hidden;connectable=0;fillColor=none;align=left;strokeColor=inherit;top=0;left=0;bottom=0;right=0;spacingLeft=6;fontStyle=5;" vertex="1" parent="bjHw961es4BenDyh05qI-363">
          <mxGeometry x="30" width="170" height="30" as="geometry">
            <mxRectangle width="170" height="30" as="alternateBounds" />
          </mxGeometry>
        </mxCell>
        <mxCell id="bjHw961es4BenDyh05qI-366" value="" style="shape=tableRow;horizontal=0;startSize=0;swimlaneHead=0;swimlaneBody=0;fillColor=none;collapsible=0;dropTarget=0;points=[[0,0.5],[1,0.5]];portConstraint=eastwest;strokeColor=inherit;top=0;left=0;right=0;bottom=0;" vertex="1" parent="bjHw961es4BenDyh05qI-359">
          <mxGeometry y="60" width="200" height="30" as="geometry" />
        </mxCell>
        <mxCell id="bjHw961es4BenDyh05qI-367" value="" style="shape=partialRectangle;overflow=hidden;connectable=0;fillColor=none;strokeColor=inherit;top=0;left=0;bottom=0;right=0;" vertex="1" parent="bjHw961es4BenDyh05qI-366">
          <mxGeometry width="30" height="30" as="geometry">
            <mxRectangle width="30" height="30" as="alternateBounds" />
          </mxGeometry>
        </mxCell>
        <mxCell id="bjHw961es4BenDyh05qI-368" value="fat_per_portion" style="shape=partialRectangle;overflow=hidden;connectable=0;fillColor=none;align=left;strokeColor=inherit;top=0;left=0;bottom=0;right=0;spacingLeft=6;" vertex="1" parent="bjHw961es4BenDyh05qI-366">
          <mxGeometry x="30" width="170" height="30" as="geometry">
            <mxRectangle width="170" height="30" as="alternateBounds" />
          </mxGeometry>
        </mxCell>
        <mxCell id="bjHw961es4BenDyh05qI-369" value="" style="shape=tableRow;horizontal=0;startSize=0;swimlaneHead=0;swimlaneBody=0;fillColor=none;collapsible=0;dropTarget=0;points=[[0,0.5],[1,0.5]];portConstraint=eastwest;strokeColor=inherit;top=0;left=0;right=0;bottom=0;" vertex="1" parent="bjHw961es4BenDyh05qI-359">
          <mxGeometry y="90" width="200" height="30" as="geometry" />
        </mxCell>
        <mxCell id="bjHw961es4BenDyh05qI-370" value="" style="shape=partialRectangle;overflow=hidden;connectable=0;fillColor=none;strokeColor=inherit;top=0;left=0;bottom=0;right=0;" vertex="1" parent="bjHw961es4BenDyh05qI-369">
          <mxGeometry width="30" height="30" as="geometry">
            <mxRectangle width="30" height="30" as="alternateBounds" />
          </mxGeometry>
        </mxCell>
        <mxCell id="bjHw961es4BenDyh05qI-371" value="carbs_per_portion" style="shape=partialRectangle;overflow=hidden;connectable=0;fillColor=none;align=left;strokeColor=inherit;top=0;left=0;bottom=0;right=0;spacingLeft=6;" vertex="1" parent="bjHw961es4BenDyh05qI-369">
          <mxGeometry x="30" width="170" height="30" as="geometry">
            <mxRectangle width="170" height="30" as="alternateBounds" />
          </mxGeometry>
        </mxCell>
        <mxCell id="bjHw961es4BenDyh05qI-372" value="" style="shape=tableRow;horizontal=0;startSize=0;swimlaneHead=0;swimlaneBody=0;fillColor=none;collapsible=0;dropTarget=0;points=[[0,0.5],[1,0.5]];portConstraint=eastwest;strokeColor=inherit;top=0;left=0;right=0;bottom=0;" vertex="1" parent="bjHw961es4BenDyh05qI-359">
          <mxGeometry y="120" width="200" height="30" as="geometry" />
        </mxCell>
        <mxCell id="bjHw961es4BenDyh05qI-373" value="" style="shape=partialRectangle;overflow=hidden;connectable=0;fillColor=none;strokeColor=inherit;top=0;left=0;bottom=0;right=0;" vertex="1" parent="bjHw961es4BenDyh05qI-372">
          <mxGeometry width="30" height="30" as="geometry">
            <mxRectangle width="30" height="30" as="alternateBounds" />
          </mxGeometry>
        </mxCell>
        <mxCell id="bjHw961es4BenDyh05qI-374" value="protein_per_portion" style="shape=partialRectangle;overflow=hidden;connectable=0;fillColor=none;align=left;strokeColor=inherit;top=0;left=0;bottom=0;right=0;spacingLeft=6;" vertex="1" parent="bjHw961es4BenDyh05qI-372">
          <mxGeometry x="30" width="170" height="30" as="geometry">
            <mxRectangle width="170" height="30" as="alternateBounds" />
          </mxGeometry>
        </mxCell>
        <mxCell id="bjHw961es4BenDyh05qI-375" value="" style="shape=tableRow;horizontal=0;startSize=0;swimlaneHead=0;swimlaneBody=0;fillColor=none;collapsible=0;dropTarget=0;points=[[0,0.5],[1,0.5]];portConstraint=eastwest;strokeColor=inherit;top=0;left=0;right=0;bottom=0;" vertex="1" parent="bjHw961es4BenDyh05qI-359">
          <mxGeometry y="150" width="200" height="30" as="geometry" />
        </mxCell>
        <mxCell id="bjHw961es4BenDyh05qI-376" value="" style="shape=partialRectangle;overflow=hidden;connectable=0;fillColor=none;strokeColor=inherit;top=0;left=0;bottom=0;right=0;" vertex="1" parent="bjHw961es4BenDyh05qI-375">
          <mxGeometry width="30" height="30" as="geometry">
            <mxRectangle width="30" height="30" as="alternateBounds" />
          </mxGeometry>
        </mxCell>
        <mxCell id="bjHw961es4BenDyh05qI-377" value="calories" style="shape=partialRectangle;overflow=hidden;connectable=0;fillColor=none;align=left;strokeColor=inherit;top=0;left=0;bottom=0;right=0;spacingLeft=6;" vertex="1" parent="bjHw961es4BenDyh05qI-375">
          <mxGeometry x="30" width="170" height="30" as="geometry">
            <mxRectangle width="170" height="30" as="alternateBounds" />
          </mxGeometry>
        </mxCell>
        <mxCell id="bjHw961es4BenDyh05qI-621" value="Episode" style="shape=table;startSize=30;container=1;collapsible=1;childLayout=tableLayout;fixedRows=1;rowLines=0;fontStyle=1;align=center;resizeLast=1;" vertex="1" parent="1">
          <mxGeometry x="-2700" y="-505" width="180" height="150" as="geometry" />
        </mxCell>
        <mxCell id="bjHw961es4BenDyh05qI-625" value="" style="shape=tableRow;horizontal=0;startSize=0;swimlaneHead=0;swimlaneBody=0;fillColor=none;collapsible=0;dropTarget=0;points=[[0,0.5],[1,0.5]];portConstraint=eastwest;strokeColor=inherit;top=0;left=0;right=0;bottom=1;" vertex="1" parent="bjHw961es4BenDyh05qI-621">
          <mxGeometry y="30" width="180" height="30" as="geometry" />
        </mxCell>
        <mxCell id="bjHw961es4BenDyh05qI-626" value="PK" style="shape=partialRectangle;overflow=hidden;connectable=0;fillColor=none;strokeColor=inherit;top=0;left=0;bottom=0;right=0;fontStyle=1;" vertex="1" parent="bjHw961es4BenDyh05qI-625">
          <mxGeometry width="30" height="30" as="geometry">
            <mxRectangle width="30" height="30" as="alternateBounds" />
          </mxGeometry>
        </mxCell>
        <mxCell id="bjHw961es4BenDyh05qI-627" value="episode_id" style="shape=partialRectangle;overflow=hidden;connectable=0;fillColor=none;align=left;strokeColor=inherit;top=0;left=0;bottom=0;right=0;spacingLeft=6;fontStyle=5;" vertex="1" parent="bjHw961es4BenDyh05qI-625">
          <mxGeometry x="30" width="150" height="30" as="geometry">
            <mxRectangle width="150" height="30" as="alternateBounds" />
          </mxGeometry>
        </mxCell>
        <mxCell id="bjHw961es4BenDyh05qI-628" value="" style="shape=tableRow;horizontal=0;startSize=0;swimlaneHead=0;swimlaneBody=0;fillColor=none;collapsible=0;dropTarget=0;points=[[0,0.5],[1,0.5]];portConstraint=eastwest;strokeColor=inherit;top=0;left=0;right=0;bottom=0;" vertex="1" parent="bjHw961es4BenDyh05qI-621">
          <mxGeometry y="60" width="180" height="30" as="geometry" />
        </mxCell>
        <mxCell id="bjHw961es4BenDyh05qI-629" value="" style="shape=partialRectangle;overflow=hidden;connectable=0;fillColor=none;strokeColor=inherit;top=0;left=0;bottom=0;right=0;" vertex="1" parent="bjHw961es4BenDyh05qI-628">
          <mxGeometry width="30" height="30" as="geometry">
            <mxRectangle width="30" height="30" as="alternateBounds" />
          </mxGeometry>
        </mxCell>
        <mxCell id="bjHw961es4BenDyh05qI-630" value="year" style="shape=partialRectangle;overflow=hidden;connectable=0;fillColor=none;align=left;strokeColor=inherit;top=0;left=0;bottom=0;right=0;spacingLeft=6;" vertex="1" parent="bjHw961es4BenDyh05qI-628">
          <mxGeometry x="30" width="150" height="30" as="geometry">
            <mxRectangle width="150" height="30" as="alternateBounds" />
          </mxGeometry>
        </mxCell>
        <mxCell id="bjHw961es4BenDyh05qI-631" value="" style="shape=tableRow;horizontal=0;startSize=0;swimlaneHead=0;swimlaneBody=0;fillColor=none;collapsible=0;dropTarget=0;points=[[0,0.5],[1,0.5]];portConstraint=eastwest;strokeColor=inherit;top=0;left=0;right=0;bottom=0;" vertex="1" parent="bjHw961es4BenDyh05qI-621">
          <mxGeometry y="90" width="180" height="30" as="geometry" />
        </mxCell>
        <mxCell id="bjHw961es4BenDyh05qI-632" value="" style="shape=partialRectangle;overflow=hidden;connectable=0;fillColor=none;strokeColor=inherit;top=0;left=0;bottom=0;right=0;" vertex="1" parent="bjHw961es4BenDyh05qI-631">
          <mxGeometry width="30" height="30" as="geometry">
            <mxRectangle width="30" height="30" as="alternateBounds" />
          </mxGeometry>
        </mxCell>
        <mxCell id="bjHw961es4BenDyh05qI-633" value="episode_number" style="shape=partialRectangle;overflow=hidden;connectable=0;fillColor=none;align=left;strokeColor=inherit;top=0;left=0;bottom=0;right=0;spacingLeft=6;" vertex="1" parent="bjHw961es4BenDyh05qI-631">
          <mxGeometry x="30" width="150" height="30" as="geometry">
            <mxRectangle width="150" height="30" as="alternateBounds" />
          </mxGeometry>
        </mxCell>
        <mxCell id="bjHw961es4BenDyh05qI-634" value="" style="shape=tableRow;horizontal=0;startSize=0;swimlaneHead=0;swimlaneBody=0;fillColor=none;collapsible=0;dropTarget=0;points=[[0,0.5],[1,0.5]];portConstraint=eastwest;strokeColor=inherit;top=0;left=0;right=0;bottom=0;" vertex="1" parent="bjHw961es4BenDyh05qI-621">
          <mxGeometry y="120" width="180" height="30" as="geometry" />
        </mxCell>
        <mxCell id="bjHw961es4BenDyh05qI-635" value="" style="shape=partialRectangle;overflow=hidden;connectable=0;fillColor=none;strokeColor=inherit;top=0;left=0;bottom=0;right=0;" vertex="1" parent="bjHw961es4BenDyh05qI-634">
          <mxGeometry width="30" height="30" as="geometry">
            <mxRectangle width="30" height="30" as="alternateBounds" />
          </mxGeometry>
        </mxCell>
        <mxCell id="bjHw961es4BenDyh05qI-636" value="winner_cook_id " style="shape=partialRectangle;overflow=hidden;connectable=0;fillColor=none;align=left;strokeColor=inherit;top=0;left=0;bottom=0;right=0;spacingLeft=6;" vertex="1" parent="bjHw961es4BenDyh05qI-634">
          <mxGeometry x="30" width="150" height="30" as="geometry">
            <mxRectangle width="150" height="30" as="alternateBounds" />
          </mxGeometry>
        </mxCell>
        <mxCell id="bjHw961es4BenDyh05qI-881" value="" style="shape=link;html=1;rounded=0;exitX=1;exitY=0.5;exitDx=0;exitDy=0;entryX=0;entryY=0.5;entryDx=0;entryDy=0;" edge="1" parent="1" source="bjHw961es4BenDyh05qI-15" target="bjHw961es4BenDyh05qI-883">
          <mxGeometry width="100" relative="1" as="geometry">
            <mxPoint x="-4050" y="-545" as="sourcePoint" />
            <mxPoint x="-4080" y="-555" as="targetPoint" />
          </mxGeometry>
        </mxCell>
        <mxCell id="bjHw961es4BenDyh05qI-884" style="edgeStyle=orthogonalEdgeStyle;rounded=0;orthogonalLoop=1;jettySize=auto;html=1;entryX=0;entryY=0.5;entryDx=0;entryDy=0;" edge="1" parent="1" source="bjHw961es4BenDyh05qI-883" target="bjHw961es4BenDyh05qI-2">
          <mxGeometry relative="1" as="geometry" />
        </mxCell>
        <mxCell id="bjHw961es4BenDyh05qI-883" value="is a" style="shape=rhombus;double=1;perimeter=rhombusPerimeter;whiteSpace=wrap;html=1;align=center;" vertex="1" parent="1">
          <mxGeometry x="-4090" y="-455" width="130" height="60" as="geometry" />
        </mxCell>
        <mxCell id="bjHw961es4BenDyh05qI-887" value="has" style="shape=rhombus;perimeter=rhombusPerimeter;whiteSpace=wrap;html=1;align=center;" vertex="1" parent="1">
          <mxGeometry x="-3970" y="-15" width="90" height="60" as="geometry" />
        </mxCell>
        <mxCell id="bjHw961es4BenDyh05qI-893" value="" style="endArrow=none;html=1;rounded=0;exitX=1;exitY=0.5;exitDx=0;exitDy=0;entryX=0;entryY=0.5;entryDx=0;entryDy=0;" edge="1" parent="1" source="bjHw961es4BenDyh05qI-29" target="bjHw961es4BenDyh05qI-887">
          <mxGeometry relative="1" as="geometry">
            <mxPoint x="-3510" y="-120" as="sourcePoint" />
            <mxPoint x="-3350" y="-120" as="targetPoint" />
          </mxGeometry>
        </mxCell>
        <mxCell id="bjHw961es4BenDyh05qI-917" style="edgeStyle=orthogonalEdgeStyle;rounded=0;orthogonalLoop=1;jettySize=auto;html=1;entryX=0;entryY=0.5;entryDx=0;entryDy=0;" edge="1" parent="1" source="bjHw961es4BenDyh05qI-894" target="bjHw961es4BenDyh05qI-152">
          <mxGeometry relative="1" as="geometry" />
        </mxCell>
        <mxCell id="bjHw961es4BenDyh05qI-894" value="depicts_recipe" style="shape=rhombus;perimeter=rhombusPerimeter;whiteSpace=wrap;html=1;align=center;" vertex="1" parent="1">
          <mxGeometry x="-3650" y="265" width="100" height="60" as="geometry" />
        </mxCell>
        <mxCell id="bjHw961es4BenDyh05qI-895" style="edgeStyle=orthogonalEdgeStyle;rounded=0;orthogonalLoop=1;jettySize=auto;html=1;exitX=0;exitY=0.5;exitDx=0;exitDy=0;entryX=1.012;entryY=0.944;entryDx=0;entryDy=0;entryPerimeter=0;" edge="1" parent="1" source="bjHw961es4BenDyh05qI-894" target="bjHw961es4BenDyh05qI-19">
          <mxGeometry relative="1" as="geometry" />
        </mxCell>
        <mxCell id="bjHw961es4BenDyh05qI-916" style="edgeStyle=orthogonalEdgeStyle;rounded=0;orthogonalLoop=1;jettySize=auto;html=1;exitX=1;exitY=0.5;exitDx=0;exitDy=0;entryX=0;entryY=0.5;entryDx=0;entryDy=0;" edge="1" parent="1" source="bjHw961es4BenDyh05qI-900" target="bjHw961es4BenDyh05qI-146">
          <mxGeometry relative="1" as="geometry" />
        </mxCell>
        <mxCell id="bjHw961es4BenDyh05qI-924" style="edgeStyle=orthogonalEdgeStyle;rounded=0;orthogonalLoop=1;jettySize=auto;html=1;exitX=0;exitY=0.5;exitDx=0;exitDy=0;entryX=1;entryY=0.5;entryDx=0;entryDy=0;" edge="1" parent="1" source="bjHw961es4BenDyh05qI-900" target="bjHw961es4BenDyh05qI-67">
          <mxGeometry relative="1" as="geometry" />
        </mxCell>
        <mxCell id="bjHw961es4BenDyh05qI-900" value="has_basic_ingredient" style="shape=rhombus;perimeter=rhombusPerimeter;whiteSpace=wrap;html=1;align=center;" vertex="1" parent="1">
          <mxGeometry x="-3960" y="195" width="180" height="80" as="geometry" />
        </mxCell>
        <mxCell id="bjHw961es4BenDyh05qI-902" style="edgeStyle=orthogonalEdgeStyle;rounded=0;orthogonalLoop=1;jettySize=auto;html=1;exitX=1;exitY=0.5;exitDx=0;exitDy=0;entryX=0.007;entryY=0.133;entryDx=0;entryDy=0;entryPerimeter=0;" edge="1" parent="1" source="bjHw961es4BenDyh05qI-887" target="bjHw961es4BenDyh05qI-125">
          <mxGeometry relative="1" as="geometry" />
        </mxCell>
        <mxCell id="bjHw961es4BenDyh05qI-906" value="Recipe_Meal_Type" style="shape=rhombus;perimeter=rhombusPerimeter;whiteSpace=wrap;html=1;align=center;" vertex="1" parent="1">
          <mxGeometry x="-2340" y="-70" width="180" height="60" as="geometry" />
        </mxCell>
        <mxCell id="bjHw961es4BenDyh05qI-907" value="" style="endArrow=none;html=1;rounded=0;exitX=1.004;exitY=0.306;exitDx=0;exitDy=0;entryX=0;entryY=0.5;entryDx=0;entryDy=0;exitPerimeter=0;" edge="1" parent="1" source="bjHw961es4BenDyh05qI-119" target="bjHw961es4BenDyh05qI-906">
          <mxGeometry relative="1" as="geometry">
            <mxPoint x="-2800" y="150" as="sourcePoint" />
            <mxPoint x="-2640" y="150" as="targetPoint" />
          </mxGeometry>
        </mxCell>
        <mxCell id="bjHw961es4BenDyh05qI-908" value="0..*" style="resizable=0;html=1;whiteSpace=wrap;align=left;verticalAlign=bottom;" connectable="0" vertex="1" parent="bjHw961es4BenDyh05qI-907">
          <mxGeometry x="-1" relative="1" as="geometry">
            <mxPoint x="419" y="1" as="offset" />
          </mxGeometry>
        </mxCell>
        <mxCell id="bjHw961es4BenDyh05qI-910" value="" style="endArrow=none;html=1;rounded=0;exitX=1;exitY=0.5;exitDx=0;exitDy=0;entryX=-0.002;entryY=0.356;entryDx=0;entryDy=0;entryPerimeter=0;" edge="1" parent="1" source="bjHw961es4BenDyh05qI-906" target="bjHw961es4BenDyh05qI-210">
          <mxGeometry relative="1" as="geometry">
            <mxPoint x="-2360" y="-29" as="sourcePoint" />
            <mxPoint x="-2330" y="-30" as="targetPoint" />
          </mxGeometry>
        </mxCell>
        <mxCell id="bjHw961es4BenDyh05qI-911" value="1..*" style="resizable=0;html=1;whiteSpace=wrap;align=left;verticalAlign=bottom;" connectable="0" vertex="1" parent="bjHw961es4BenDyh05qI-910">
          <mxGeometry x="-1" relative="1" as="geometry" />
        </mxCell>
        <mxCell id="bjHw961es4BenDyh05qI-913" value="Recipel_Label" style="shape=rhombus;perimeter=rhombusPerimeter;whiteSpace=wrap;html=1;align=center;" vertex="1" parent="1">
          <mxGeometry x="-2310" y="25" width="180" height="60" as="geometry" />
        </mxCell>
        <mxCell id="bjHw961es4BenDyh05qI-920" style="edgeStyle=orthogonalEdgeStyle;rounded=0;orthogonalLoop=1;jettySize=auto;html=1;exitX=1;exitY=0.5;exitDx=0;exitDy=0;entryX=0;entryY=0.5;entryDx=0;entryDy=0;" edge="1" parent="1" source="bjHw961es4BenDyh05qI-918" target="bjHw961es4BenDyh05qI-45">
          <mxGeometry relative="1" as="geometry" />
        </mxCell>
        <mxCell id="bjHw961es4BenDyh05qI-918" value="belongs_to" style="shape=rhombus;perimeter=rhombusPerimeter;whiteSpace=wrap;html=1;align=center;" vertex="1" parent="1">
          <mxGeometry x="-4305" y="675" width="90" height="60" as="geometry" />
        </mxCell>
        <mxCell id="bjHw961es4BenDyh05qI-919" value="" style="endArrow=none;html=1;rounded=0;entryX=0;entryY=0.5;entryDx=0;entryDy=0;exitX=0.358;exitY=1.064;exitDx=0;exitDy=0;exitPerimeter=0;" edge="1" parent="1" source="bjHw961es4BenDyh05qI-79" target="bjHw961es4BenDyh05qI-918">
          <mxGeometry relative="1" as="geometry">
            <mxPoint x="-4096.799999999999" y="425.59000000000015" as="sourcePoint" />
            <mxPoint x="-4070" y="600" as="targetPoint" />
          </mxGeometry>
        </mxCell>
        <mxCell id="bjHw961es4BenDyh05qI-925" style="edgeStyle=orthogonalEdgeStyle;rounded=0;orthogonalLoop=1;jettySize=auto;html=1;exitX=0;exitY=0.5;exitDx=0;exitDy=0;entryX=1;entryY=0.5;entryDx=0;entryDy=0;" edge="1" parent="1" source="bjHw961es4BenDyh05qI-921" target="bjHw961es4BenDyh05qI-73">
          <mxGeometry relative="1" as="geometry" />
        </mxCell>
        <mxCell id="bjHw961es4BenDyh05qI-921" value="depicts_ingredient" style="shape=rhombus;perimeter=rhombusPerimeter;whiteSpace=wrap;html=1;align=center;" vertex="1" parent="1">
          <mxGeometry x="-4030" y="280" width="125" height="60" as="geometry" />
        </mxCell>
        <mxCell id="bjHw961es4BenDyh05qI-922" style="edgeStyle=orthogonalEdgeStyle;rounded=0;orthogonalLoop=1;jettySize=auto;html=1;exitX=1;exitY=0.5;exitDx=0;exitDy=0;entryX=0.015;entryY=0.227;entryDx=0;entryDy=0;entryPerimeter=0;" edge="1" parent="1" source="bjHw961es4BenDyh05qI-921" target="bjHw961es4BenDyh05qI-22">
          <mxGeometry relative="1" as="geometry" />
        </mxCell>
        <mxCell id="bjHw961es4BenDyh05qI-928" style="edgeStyle=orthogonalEdgeStyle;rounded=0;orthogonalLoop=1;jettySize=auto;html=1;exitX=0.5;exitY=1;exitDx=0;exitDy=0;entryX=0.5;entryY=0;entryDx=0;entryDy=0;" edge="1" parent="1" source="bjHw961es4BenDyh05qI-926" target="bjHw961es4BenDyh05qI-35">
          <mxGeometry relative="1" as="geometry" />
        </mxCell>
        <mxCell id="bjHw961es4BenDyh05qI-926" value="depicts_food_group" style="shape=rhombus;perimeter=rhombusPerimeter;whiteSpace=wrap;html=1;align=center;" vertex="1" parent="1">
          <mxGeometry x="-4060" y="470" width="160" height="60" as="geometry" />
        </mxCell>
        <mxCell id="bjHw961es4BenDyh05qI-953" style="edgeStyle=orthogonalEdgeStyle;rounded=0;orthogonalLoop=1;jettySize=auto;html=1;entryX=0;entryY=0.5;entryDx=0;entryDy=0;" edge="1" parent="1" source="bjHw961es4BenDyh05qI-932" target="bjHw961es4BenDyh05qI-233">
          <mxGeometry relative="1" as="geometry" />
        </mxCell>
        <mxCell id="bjHw961es4BenDyh05qI-932" value="depicts_equipment" style="shape=rhombus;perimeter=rhombusPerimeter;whiteSpace=wrap;html=1;align=center;" vertex="1" parent="1">
          <mxGeometry x="-3710" y="737.78" width="140" height="85" as="geometry" />
        </mxCell>
        <mxCell id="bjHw961es4BenDyh05qI-936" value="Recipe_Equipment" style="shape=rhombus;perimeter=rhombusPerimeter;whiteSpace=wrap;html=1;align=center;" vertex="1" parent="1">
          <mxGeometry x="-2785" y="515.28" width="180" height="60" as="geometry" />
        </mxCell>
        <mxCell id="bjHw961es4BenDyh05qI-937" value="" style="endArrow=none;html=1;rounded=0;exitX=1;exitY=0.5;exitDx=0;exitDy=0;entryX=0;entryY=0.5;entryDx=0;entryDy=0;" edge="1" parent="1" source="bjHw961es4BenDyh05qI-128" target="bjHw961es4BenDyh05qI-913">
          <mxGeometry relative="1" as="geometry">
            <mxPoint x="-2780" y="11" as="sourcePoint" />
            <mxPoint x="-2750" y="10" as="targetPoint" />
          </mxGeometry>
        </mxCell>
        <mxCell id="bjHw961es4BenDyh05qI-938" value="0..*" style="resizable=0;html=1;whiteSpace=wrap;align=left;verticalAlign=bottom;" connectable="0" vertex="1" parent="bjHw961es4BenDyh05qI-937">
          <mxGeometry x="-1" relative="1" as="geometry">
            <mxPoint x="450" as="offset" />
          </mxGeometry>
        </mxCell>
        <mxCell id="bjHw961es4BenDyh05qI-939" value="" style="endArrow=none;html=1;rounded=0;entryX=-0.017;entryY=0.396;entryDx=0;entryDy=0;entryPerimeter=0;exitX=1;exitY=0.5;exitDx=0;exitDy=0;" edge="1" parent="1" source="bjHw961es4BenDyh05qI-913" target="bjHw961es4BenDyh05qI-217">
          <mxGeometry relative="1" as="geometry">
            <mxPoint x="-2130" y="60" as="sourcePoint" />
            <mxPoint x="-2300" y="70" as="targetPoint" />
          </mxGeometry>
        </mxCell>
        <mxCell id="bjHw961es4BenDyh05qI-940" value="0..*" style="resizable=0;html=1;whiteSpace=wrap;align=left;verticalAlign=bottom;" connectable="0" vertex="1" parent="bjHw961es4BenDyh05qI-939">
          <mxGeometry x="-1" relative="1" as="geometry" />
        </mxCell>
        <mxCell id="bjHw961es4BenDyh05qI-941" value="" style="endArrow=none;html=1;rounded=0;exitX=0.92;exitY=1.064;exitDx=0;exitDy=0;entryX=0;entryY=0.5;entryDx=0;entryDy=0;exitPerimeter=0;" edge="1" parent="1" source="bjHw961es4BenDyh05qI-155" target="bjHw961es4BenDyh05qI-936">
          <mxGeometry relative="1" as="geometry">
            <mxPoint x="-2770" y="135" as="sourcePoint" />
            <mxPoint x="-2740" y="150" as="targetPoint" />
            <Array as="points">
              <mxPoint x="-2816" y="440" />
              <mxPoint x="-2816" y="545" />
            </Array>
          </mxGeometry>
        </mxCell>
        <mxCell id="bjHw961es4BenDyh05qI-942" value="0..*" style="resizable=0;html=1;whiteSpace=wrap;align=left;verticalAlign=bottom;" connectable="0" vertex="1" parent="bjHw961es4BenDyh05qI-941">
          <mxGeometry x="-1" relative="1" as="geometry">
            <mxPoint x="11" y="193" as="offset" />
          </mxGeometry>
        </mxCell>
        <mxCell id="bjHw961es4BenDyh05qI-943" value="" style="endArrow=none;html=1;rounded=0;exitX=0.5;exitY=1;exitDx=0;exitDy=0;entryX=0.5;entryY=0;entryDx=0;entryDy=0;" edge="1" parent="1" source="bjHw961es4BenDyh05qI-936" target="bjHw961es4BenDyh05qI-223">
          <mxGeometry relative="1" as="geometry">
            <mxPoint x="-2780" y="350.28" as="sourcePoint" />
            <mxPoint x="-2720" y="385.28" as="targetPoint" />
          </mxGeometry>
        </mxCell>
        <mxCell id="bjHw961es4BenDyh05qI-944" value="0..*" style="resizable=0;html=1;whiteSpace=wrap;align=left;verticalAlign=bottom;" connectable="0" vertex="1" parent="bjHw961es4BenDyh05qI-943">
          <mxGeometry x="-1" relative="1" as="geometry">
            <mxPoint x="10" y="25" as="offset" />
          </mxGeometry>
        </mxCell>
        <mxCell id="bjHw961es4BenDyh05qI-945" value="Recipe_Ingredient" style="shape=rhombus;perimeter=rhombusPerimeter;whiteSpace=wrap;html=1;align=center;" vertex="1" parent="1">
          <mxGeometry x="-3880" y="75" width="180" height="80" as="geometry" />
        </mxCell>
        <mxCell id="bjHw961es4BenDyh05qI-946" value="" style="endArrow=none;html=1;rounded=0;exitX=1;exitY=0.5;exitDx=0;exitDy=0;entryX=0;entryY=0.5;entryDx=0;entryDy=0;" edge="1" parent="1" source="bjHw961es4BenDyh05qI-945" target="bjHw961es4BenDyh05qI-134">
          <mxGeometry relative="1" as="geometry">
            <mxPoint x="-3170" y="160" as="sourcePoint" />
            <mxPoint x="-3010" y="160" as="targetPoint" />
          </mxGeometry>
        </mxCell>
        <mxCell id="bjHw961es4BenDyh05qI-947" value="1..*" style="resizable=0;html=1;whiteSpace=wrap;align=left;verticalAlign=bottom;" connectable="0" vertex="1" parent="bjHw961es4BenDyh05qI-946">
          <mxGeometry x="-1" relative="1" as="geometry">
            <mxPoint x="10" y="-5" as="offset" />
          </mxGeometry>
        </mxCell>
        <mxCell id="bjHw961es4BenDyh05qI-949" value="" style="endArrow=none;html=1;rounded=0;entryX=0;entryY=0.5;entryDx=0;entryDy=0;" edge="1" parent="1" target="bjHw961es4BenDyh05qI-945">
          <mxGeometry relative="1" as="geometry">
            <mxPoint x="-4270" y="190" as="sourcePoint" />
            <mxPoint x="-3940" y="125" as="targetPoint" />
            <Array as="points">
              <mxPoint x="-4270" y="115" />
            </Array>
          </mxGeometry>
        </mxCell>
        <mxCell id="bjHw961es4BenDyh05qI-951" value="0..*" style="resizable=0;html=1;whiteSpace=wrap;align=right;verticalAlign=bottom;" connectable="0" vertex="1" parent="bjHw961es4BenDyh05qI-949">
          <mxGeometry x="1" relative="1" as="geometry">
            <mxPoint y="-5" as="offset" />
          </mxGeometry>
        </mxCell>
        <mxCell id="bjHw961es4BenDyh05qI-952" style="edgeStyle=orthogonalEdgeStyle;rounded=0;orthogonalLoop=1;jettySize=auto;html=1;exitX=0.5;exitY=0;exitDx=0;exitDy=0;entryX=-0.001;entryY=0.044;entryDx=0;entryDy=0;entryPerimeter=0;" edge="1" parent="1" source="bjHw961es4BenDyh05qI-926" target="bjHw961es4BenDyh05qI-25">
          <mxGeometry relative="1" as="geometry" />
        </mxCell>
        <mxCell id="bjHw961es4BenDyh05qI-956" style="edgeStyle=orthogonalEdgeStyle;rounded=0;orthogonalLoop=1;jettySize=auto;html=1;entryX=1;entryY=0.5;entryDx=0;entryDy=0;" edge="1" parent="1" source="bjHw961es4BenDyh05qI-955" target="bjHw961es4BenDyh05qI-25">
          <mxGeometry relative="1" as="geometry">
            <mxPoint x="-3700" y="500.28" as="targetPoint" />
          </mxGeometry>
        </mxCell>
        <mxCell id="bjHw961es4BenDyh05qI-988" style="edgeStyle=orthogonalEdgeStyle;rounded=0;orthogonalLoop=1;jettySize=auto;html=1;entryX=0;entryY=0.5;entryDx=0;entryDy=0;" edge="1" parent="1" source="bjHw961es4BenDyh05qI-955" target="bjHw961es4BenDyh05qI-289">
          <mxGeometry relative="1" as="geometry" />
        </mxCell>
        <mxCell id="bjHw961es4BenDyh05qI-955" value="depicts_thematic_unit" style="shape=rhombus;perimeter=rhombusPerimeter;whiteSpace=wrap;html=1;align=center;" vertex="1" parent="1">
          <mxGeometry x="-3620" y="545.28" width="150" height="90" as="geometry" />
        </mxCell>
        <mxCell id="bjHw961es4BenDyh05qI-958" value="Recipe_Thematic_Unit" style="shape=rhombus;perimeter=rhombusPerimeter;whiteSpace=wrap;html=1;align=center;" vertex="1" parent="1">
          <mxGeometry x="-3075" y="495.28" width="180" height="80" as="geometry" />
        </mxCell>
        <mxCell id="bjHw961es4BenDyh05qI-960" value="" style="endArrow=none;html=1;rounded=0;exitX=0.5;exitY=0;exitDx=0;exitDy=0;entryX=0.5;entryY=1;entryDx=0;entryDy=0;" edge="1" parent="1" source="bjHw961es4BenDyh05qI-282" target="bjHw961es4BenDyh05qI-958">
          <mxGeometry relative="1" as="geometry">
            <mxPoint x="-2940" y="737.78" as="sourcePoint" />
            <mxPoint x="-2680" y="727.78" as="targetPoint" />
          </mxGeometry>
        </mxCell>
        <mxCell id="bjHw961es4BenDyh05qI-961" value="1..*" style="resizable=0;html=1;whiteSpace=wrap;align=left;verticalAlign=bottom;" connectable="0" vertex="1" parent="bjHw961es4BenDyh05qI-960">
          <mxGeometry x="-1" relative="1" as="geometry">
            <mxPoint x="-25" y="-10" as="offset" />
          </mxGeometry>
        </mxCell>
        <mxCell id="bjHw961es4BenDyh05qI-962" value="" style="endArrow=none;html=1;rounded=0;exitX=0.39;exitY=1.024;exitDx=0;exitDy=0;entryX=0.5;entryY=0;entryDx=0;entryDy=0;exitPerimeter=0;" edge="1" parent="1" source="bjHw961es4BenDyh05qI-155" target="bjHw961es4BenDyh05qI-958">
          <mxGeometry relative="1" as="geometry">
            <mxPoint x="-2750" y="365" as="sourcePoint" />
            <mxPoint x="-2640" y="340" as="targetPoint" />
          </mxGeometry>
        </mxCell>
        <mxCell id="bjHw961es4BenDyh05qI-963" value="0..*" style="resizable=0;html=1;whiteSpace=wrap;align=left;verticalAlign=bottom;" connectable="0" vertex="1" parent="bjHw961es4BenDyh05qI-962">
          <mxGeometry x="-1" relative="1" as="geometry">
            <mxPoint x="-25" y="149" as="offset" />
          </mxGeometry>
        </mxCell>
        <mxCell id="bjHw961es4BenDyh05qI-967" style="edgeStyle=orthogonalEdgeStyle;rounded=0;orthogonalLoop=1;jettySize=auto;html=1;" edge="1" parent="1" source="bjHw961es4BenDyh05qI-964">
          <mxGeometry relative="1" as="geometry">
            <mxPoint x="-3430" y="-310" as="targetPoint" />
            <Array as="points">
              <mxPoint x="-3430" y="-310" />
            </Array>
          </mxGeometry>
        </mxCell>
        <mxCell id="bjHw961es4BenDyh05qI-964" value="depicts_cook" style="shape=rhombus;perimeter=rhombusPerimeter;whiteSpace=wrap;html=1;align=center;" vertex="1" parent="1">
          <mxGeometry x="-4215" y="-340" width="100" height="60" as="geometry" />
        </mxCell>
        <mxCell id="bjHw961es4BenDyh05qI-966" style="edgeStyle=orthogonalEdgeStyle;rounded=0;orthogonalLoop=1;jettySize=auto;html=1;exitX=0;exitY=0.5;exitDx=0;exitDy=0;entryX=-0.01;entryY=0.96;entryDx=0;entryDy=0;entryPerimeter=0;" edge="1" parent="1" source="bjHw961es4BenDyh05qI-964" target="bjHw961es4BenDyh05qI-25">
          <mxGeometry relative="1" as="geometry">
            <Array as="points">
              <mxPoint x="-4580" y="-310" />
              <mxPoint x="-4580" y="409" />
            </Array>
          </mxGeometry>
        </mxCell>
        <mxCell id="bjHw961es4BenDyh05qI-968" value="" style="shape=link;html=1;rounded=0;entryX=1;entryY=0.5;entryDx=0;entryDy=0;exitX=0.069;exitY=0.179;exitDx=0;exitDy=0;exitPerimeter=0;" edge="1" parent="1" target="bjHw961es4BenDyh05qI-970">
          <mxGeometry width="100" relative="1" as="geometry">
            <mxPoint x="-3430.3100000000004" y="-419.95000000000005" as="sourcePoint" />
            <mxPoint x="-3605" y="-620" as="targetPoint" />
          </mxGeometry>
        </mxCell>
        <mxCell id="bjHw961es4BenDyh05qI-1014" style="edgeStyle=orthogonalEdgeStyle;rounded=0;orthogonalLoop=1;jettySize=auto;html=1;entryX=1.004;entryY=0.672;entryDx=0;entryDy=0;entryPerimeter=0;" edge="1" parent="1" source="bjHw961es4BenDyh05qI-970" target="bjHw961es4BenDyh05qI-2">
          <mxGeometry relative="1" as="geometry" />
        </mxCell>
        <mxCell id="bjHw961es4BenDyh05qI-970" value="is a" style="shape=rhombus;double=1;perimeter=rhombusPerimeter;whiteSpace=wrap;html=1;align=center;" vertex="1" parent="1">
          <mxGeometry x="-3700" y="-450" width="130" height="60" as="geometry" />
        </mxCell>
        <mxCell id="bjHw961es4BenDyh05qI-971" value="Recipe_Cook" style="shape=rhombus;perimeter=rhombusPerimeter;whiteSpace=wrap;html=1;align=center;" vertex="1" parent="1">
          <mxGeometry x="-4045" y="-145" width="180" height="60" as="geometry" />
        </mxCell>
        <mxCell id="bjHw961es4BenDyh05qI-972" value="" style="endArrow=none;html=1;rounded=0;exitX=0;exitY=0.5;exitDx=0;exitDy=0;entryX=0.5;entryY=0;entryDx=0;entryDy=0;" edge="1" parent="1" source="bjHw961es4BenDyh05qI-341" target="bjHw961es4BenDyh05qI-971">
          <mxGeometry relative="1" as="geometry">
            <mxPoint x="-3330" y="-140" as="sourcePoint" />
            <mxPoint x="-3070" y="-150" as="targetPoint" />
            <Array as="points">
              <mxPoint x="-3625" y="-220" />
              <mxPoint x="-3955" y="-220" />
            </Array>
          </mxGeometry>
        </mxCell>
        <mxCell id="bjHw961es4BenDyh05qI-973" value="1..*" style="resizable=0;html=1;whiteSpace=wrap;align=left;verticalAlign=bottom;" connectable="0" vertex="1" parent="bjHw961es4BenDyh05qI-972">
          <mxGeometry x="-1" relative="1" as="geometry">
            <mxPoint x="-525" y="60" as="offset" />
          </mxGeometry>
        </mxCell>
        <mxCell id="bjHw961es4BenDyh05qI-974" value="" style="endArrow=none;html=1;rounded=0;exitX=0.5;exitY=1;exitDx=0;exitDy=0;entryX=0;entryY=0.5;entryDx=0;entryDy=0;" edge="1" parent="1" source="bjHw961es4BenDyh05qI-971" target="bjHw961es4BenDyh05qI-119">
          <mxGeometry relative="1" as="geometry">
            <mxPoint x="-3355" y="-195" as="sourcePoint" />
            <mxPoint x="-3130" y="-195" as="targetPoint" />
            <Array as="points">
              <mxPoint x="-3955" y="-35" />
              <mxPoint x="-3625" y="-35" />
              <mxPoint x="-3520" y="-35" />
              <mxPoint x="-3200" y="-35" />
            </Array>
          </mxGeometry>
        </mxCell>
        <mxCell id="bjHw961es4BenDyh05qI-975" value="1..*" style="resizable=0;html=1;whiteSpace=wrap;align=left;verticalAlign=bottom;" connectable="0" vertex="1" parent="bjHw961es4BenDyh05qI-974">
          <mxGeometry x="-1" relative="1" as="geometry">
            <mxPoint y="35" as="offset" />
          </mxGeometry>
        </mxCell>
        <mxCell id="bjHw961es4BenDyh05qI-976" value="Cook_National_Cuisine" style="shape=rhombus;perimeter=rhombusPerimeter;whiteSpace=wrap;html=1;align=center;" vertex="1" parent="1">
          <mxGeometry x="-4235" y="-250" width="180" height="60" as="geometry" />
        </mxCell>
        <mxCell id="bjHw961es4BenDyh05qI-977" value="" style="endArrow=none;html=1;rounded=0;entryX=0.5;entryY=0;entryDx=0;entryDy=0;exitX=0;exitY=0.5;exitDx=0;exitDy=0;" edge="1" parent="1" source="bjHw961es4BenDyh05qI-338" target="bjHw961es4BenDyh05qI-976">
          <mxGeometry relative="1" as="geometry">
            <mxPoint x="-3400" y="-200" as="sourcePoint" />
            <mxPoint x="-3120" y="-195" as="targetPoint" />
          </mxGeometry>
        </mxCell>
        <mxCell id="bjHw961es4BenDyh05qI-978" value="1..*" style="resizable=0;html=1;whiteSpace=wrap;align=left;verticalAlign=bottom;" connectable="0" vertex="1" parent="bjHw961es4BenDyh05qI-977">
          <mxGeometry x="-1" relative="1" as="geometry">
            <mxPoint x="-685" as="offset" />
          </mxGeometry>
        </mxCell>
        <mxCell id="bjHw961es4BenDyh05qI-980" value="" style="endArrow=none;html=1;rounded=0;exitX=0.5;exitY=0;exitDx=0;exitDy=0;entryX=0.5;entryY=1;entryDx=0;entryDy=0;entryPerimeter=0;" edge="1" parent="1" source="bjHw961es4BenDyh05qI-28" target="bjHw961es4BenDyh05qI-976">
          <mxGeometry relative="1" as="geometry">
            <mxPoint x="-3720" y="-178" as="sourcePoint" />
            <mxPoint x="-4145" y="-190" as="targetPoint" />
          </mxGeometry>
        </mxCell>
        <mxCell id="bjHw961es4BenDyh05qI-981" value="1..*" style="resizable=0;html=1;whiteSpace=wrap;align=left;verticalAlign=bottom;" connectable="0" vertex="1" parent="bjHw961es4BenDyh05qI-980">
          <mxGeometry x="-1" relative="1" as="geometry">
            <mxPoint x="5" y="-140" as="offset" />
          </mxGeometry>
        </mxCell>
        <mxCell id="bjHw961es4BenDyh05qI-982" value="Recipel_Step" style="shape=rhombus;perimeter=rhombusPerimeter;whiteSpace=wrap;html=1;align=center;" vertex="1" parent="1">
          <mxGeometry x="-2300" y="145" width="180" height="60" as="geometry" />
        </mxCell>
        <mxCell id="bjHw961es4BenDyh05qI-984" value="" style="endArrow=none;html=1;rounded=0;exitX=1;exitY=0.5;exitDx=0;exitDy=0;entryX=0;entryY=0.5;entryDx=0;entryDy=0;" edge="1" parent="1" source="bjHw961es4BenDyh05qI-140" target="bjHw961es4BenDyh05qI-982">
          <mxGeometry relative="1" as="geometry">
            <mxPoint x="-2560" y="-30" as="sourcePoint" />
            <mxPoint x="-2510" y="-29" as="targetPoint" />
          </mxGeometry>
        </mxCell>
        <mxCell id="bjHw961es4BenDyh05qI-985" value="1...*" style="resizable=0;html=1;whiteSpace=wrap;align=left;verticalAlign=bottom;" connectable="0" vertex="1" parent="bjHw961es4BenDyh05qI-984">
          <mxGeometry x="-1" relative="1" as="geometry">
            <mxPoint x="460" as="offset" />
          </mxGeometry>
        </mxCell>
        <mxCell id="bjHw961es4BenDyh05qI-986" value="" style="endArrow=none;html=1;rounded=0;exitX=1;exitY=0.5;exitDx=0;exitDy=0;entryX=0;entryY=0.5;entryDx=0;entryDy=0;" edge="1" parent="1" source="bjHw961es4BenDyh05qI-982" target="bjHw961es4BenDyh05qI-255">
          <mxGeometry relative="1" as="geometry">
            <mxPoint x="-2140" y="-20" as="sourcePoint" />
            <mxPoint x="-2090" y="-19" as="targetPoint" />
          </mxGeometry>
        </mxCell>
        <mxCell id="bjHw961es4BenDyh05qI-987" value="1..*" style="resizable=0;html=1;whiteSpace=wrap;align=left;verticalAlign=bottom;" connectable="0" vertex="1" parent="bjHw961es4BenDyh05qI-986">
          <mxGeometry x="-1" relative="1" as="geometry" />
        </mxCell>
        <mxCell id="bjHw961es4BenDyh05qI-992" style="edgeStyle=orthogonalEdgeStyle;rounded=0;orthogonalLoop=1;jettySize=auto;html=1;exitX=1;exitY=0.5;exitDx=0;exitDy=0;entryX=0;entryY=0.5;entryDx=0;entryDy=0;" edge="1" parent="1" source="bjHw961es4BenDyh05qI-990" target="bjHw961es4BenDyh05qI-363">
          <mxGeometry relative="1" as="geometry" />
        </mxCell>
        <mxCell id="bjHw961es4BenDyh05qI-990" value="Recipe_Nutritional_Info" style="shape=rhombus;perimeter=rhombusPerimeter;whiteSpace=wrap;html=1;align=center;" vertex="1" parent="1">
          <mxGeometry x="-2320" y="295" width="180" height="60" as="geometry" />
        </mxCell>
        <mxCell id="bjHw961es4BenDyh05qI-995" value="" style="endArrow=none;html=1;rounded=0;exitX=1;exitY=0.5;exitDx=0;exitDy=0;entryX=0;entryY=0.5;entryDx=0;entryDy=0;" edge="1" parent="1" source="bjHw961es4BenDyh05qI-155" target="bjHw961es4BenDyh05qI-990">
          <mxGeometry relative="1" as="geometry">
            <mxPoint x="-2750" y="268.82" as="sourcePoint" />
            <mxPoint x="-2680" y="268.82" as="targetPoint" />
          </mxGeometry>
        </mxCell>
        <mxCell id="bjHw961es4BenDyh05qI-996" value="1..*" style="resizable=0;html=1;whiteSpace=wrap;align=left;verticalAlign=bottom;" connectable="0" vertex="1" parent="bjHw961es4BenDyh05qI-995">
          <mxGeometry x="-1" relative="1" as="geometry">
            <mxPoint x="450" as="offset" />
          </mxGeometry>
        </mxCell>
        <mxCell id="bjHw961es4BenDyh05qI-997" value="depicts_episode" style="shape=rhombus;perimeter=rhombusPerimeter;whiteSpace=wrap;html=1;align=center;" vertex="1" parent="1">
          <mxGeometry x="-1740" y="-250" width="150" height="90" as="geometry" />
        </mxCell>
        <mxCell id="bjHw961es4BenDyh05qI-998" style="edgeStyle=orthogonalEdgeStyle;rounded=0;orthogonalLoop=1;jettySize=auto;html=1;entryX=0.455;entryY=0.989;entryDx=0;entryDy=0;entryPerimeter=0;" edge="1" parent="1" source="bjHw961es4BenDyh05qI-997" target="bjHw961es4BenDyh05qI-634">
          <mxGeometry relative="1" as="geometry" />
        </mxCell>
        <mxCell id="bjHw961es4BenDyh05qI-999" style="edgeStyle=orthogonalEdgeStyle;rounded=0;orthogonalLoop=1;jettySize=auto;html=1;exitX=0.5;exitY=1;exitDx=0;exitDy=0;" edge="1" parent="1" source="bjHw961es4BenDyh05qI-997">
          <mxGeometry relative="1" as="geometry">
            <mxPoint x="-3780" y="410" as="targetPoint" />
            <Array as="points">
              <mxPoint x="-1665" y="980" />
              <mxPoint x="-3780" y="980" />
            </Array>
          </mxGeometry>
        </mxCell>
        <mxCell id="bjHw961es4BenDyh05qI-1000" value="Episode_Judge" style="shape=rhombus;perimeter=rhombusPerimeter;whiteSpace=wrap;html=1;align=center;" vertex="1" parent="1">
          <mxGeometry x="-2940" y="-895" width="180" height="60" as="geometry" />
        </mxCell>
        <mxCell id="bjHw961es4BenDyh05qI-1001" value="" style="endArrow=none;html=1;rounded=0;exitX=1;exitY=0.5;exitDx=0;exitDy=0;entryX=0.5;entryY=0;entryDx=0;entryDy=0;" edge="1" parent="1" source="bjHw961es4BenDyh05qI-1000" target="bjHw961es4BenDyh05qI-621">
          <mxGeometry relative="1" as="geometry">
            <mxPoint x="-2510" y="-400" as="sourcePoint" />
            <mxPoint x="-2275" y="-400" as="targetPoint" />
            <Array as="points">
              <mxPoint x="-2610" y="-865" />
            </Array>
          </mxGeometry>
        </mxCell>
        <mxCell id="bjHw961es4BenDyh05qI-1002" value="0..*" style="resizable=0;html=1;whiteSpace=wrap;align=left;verticalAlign=bottom;" connectable="0" vertex="1" parent="bjHw961es4BenDyh05qI-1001">
          <mxGeometry x="-1" relative="1" as="geometry">
            <mxPoint x="10" y="-5" as="offset" />
          </mxGeometry>
        </mxCell>
        <mxCell id="bjHw961es4BenDyh05qI-1003" value="" style="endArrow=none;html=1;rounded=0;exitX=0;exitY=0.5;exitDx=0;exitDy=0;entryX=0.781;entryY=0.017;entryDx=0;entryDy=0;entryPerimeter=0;" edge="1" parent="1" source="bjHw961es4BenDyh05qI-1000" target="bjHw961es4BenDyh05qI-310">
          <mxGeometry relative="1" as="geometry">
            <mxPoint x="-2750" y="-855" as="sourcePoint" />
            <mxPoint x="-2150" y="-480" as="targetPoint" />
            <Array as="points">
              <mxPoint x="-3180" y="-865" />
              <mxPoint x="-3180" y="-640" />
            </Array>
          </mxGeometry>
        </mxCell>
        <mxCell id="bjHw961es4BenDyh05qI-1004" value="3..3" style="resizable=0;html=1;whiteSpace=wrap;align=left;verticalAlign=bottom;" connectable="0" vertex="1" parent="bjHw961es4BenDyh05qI-1003">
          <mxGeometry x="-1" relative="1" as="geometry">
            <mxPoint x="-35" y="-5" as="offset" />
          </mxGeometry>
        </mxCell>
        <mxCell id="bjHw961es4BenDyh05qI-1005" value="Episode_Combo" style="shape=rhombus;perimeter=rhombusPerimeter;whiteSpace=wrap;html=1;align=center;" vertex="1" parent="1">
          <mxGeometry x="-3025" y="-415" width="150" height="90" as="geometry" />
        </mxCell>
        <mxCell id="bjHw961es4BenDyh05qI-1006" value="" style="endArrow=none;html=1;rounded=0;exitX=1;exitY=0.5;exitDx=0;exitDy=0;entryX=0;entryY=0.5;entryDx=0;entryDy=0;" edge="1" parent="1" source="bjHw961es4BenDyh05qI-1005" target="bjHw961es4BenDyh05qI-634">
          <mxGeometry relative="1" as="geometry">
            <mxPoint x="-2650" y="-370" as="sourcePoint" />
            <mxPoint x="-2415" y="-370" as="targetPoint" />
          </mxGeometry>
        </mxCell>
        <mxCell id="bjHw961es4BenDyh05qI-1008" value="" style="endArrow=none;html=1;rounded=0;exitX=0;exitY=0.5;exitDx=0;exitDy=0;entryX=1;entryY=0.5;entryDx=0;entryDy=0;" edge="1" parent="1" source="bjHw961es4BenDyh05qI-1005" target="bjHw961es4BenDyh05qI-326">
          <mxGeometry relative="1" as="geometry">
            <mxPoint x="-2680" y="-345" as="sourcePoint" />
            <mxPoint x="-2240" y="-345" as="targetPoint" />
          </mxGeometry>
        </mxCell>
        <mxCell id="bjHw961es4BenDyh05qI-1009" value="" style="endArrow=none;html=1;rounded=0;exitX=0.5;exitY=1;exitDx=0;exitDy=0;" edge="1" parent="1" source="bjHw961es4BenDyh05qI-1005" target="bjHw961es4BenDyh05qI-112">
          <mxGeometry relative="1" as="geometry">
            <mxPoint x="-2670" y="-335" as="sourcePoint" />
            <mxPoint x="-2230" y="-335" as="targetPoint" />
          </mxGeometry>
        </mxCell>
        <mxCell id="bjHw961es4BenDyh05qI-1015" style="edgeStyle=orthogonalEdgeStyle;rounded=0;orthogonalLoop=1;jettySize=auto;html=1;entryX=0.643;entryY=1;entryDx=0;entryDy=0;entryPerimeter=0;" edge="1" parent="1" source="bjHw961es4BenDyh05qI-932" target="bjHw961es4BenDyh05qI-25">
          <mxGeometry relative="1" as="geometry">
            <mxPoint x="-3750" y="420" as="targetPoint" />
            <Array as="points">
              <mxPoint x="-3750" y="780" />
            </Array>
          </mxGeometry>
        </mxCell>
        <mxCell id="bjHw961es4BenDyh05qI-1018" value="Rates" style="shape=table;startSize=30;container=1;collapsible=1;childLayout=tableLayout;fixedRows=1;rowLines=0;fontStyle=1;align=center;resizeLast=1;" vertex="1" parent="1">
          <mxGeometry x="-1330" y="-595" width="320" height="480" as="geometry" />
        </mxCell>
        <mxCell id="bjHw961es4BenDyh05qI-1019" value="" style="shape=tableRow;horizontal=0;startSize=0;swimlaneHead=0;swimlaneBody=0;fillColor=none;collapsible=0;dropTarget=0;points=[[0,0.5],[1,0.5]];portConstraint=eastwest;strokeColor=inherit;top=0;left=0;right=0;bottom=1;" vertex="1" parent="bjHw961es4BenDyh05qI-1018">
          <mxGeometry y="30" width="320" height="30" as="geometry" />
        </mxCell>
        <mxCell id="bjHw961es4BenDyh05qI-1020" value="PK" style="shape=partialRectangle;overflow=hidden;connectable=0;fillColor=none;strokeColor=inherit;top=0;left=0;bottom=0;right=0;fontStyle=1;" vertex="1" parent="bjHw961es4BenDyh05qI-1019">
          <mxGeometry width="30" height="30" as="geometry">
            <mxRectangle width="30" height="30" as="alternateBounds" />
          </mxGeometry>
        </mxCell>
        <mxCell id="bjHw961es4BenDyh05qI-1021" value="episode_judge_id INT UNSIGNED NOT NULL" style="shape=partialRectangle;overflow=hidden;connectable=0;fillColor=none;align=left;strokeColor=inherit;top=0;left=0;bottom=0;right=0;spacingLeft=6;fontStyle=5;" vertex="1" parent="bjHw961es4BenDyh05qI-1019">
          <mxGeometry x="30" width="290" height="30" as="geometry">
            <mxRectangle width="290" height="30" as="alternateBounds" />
          </mxGeometry>
        </mxCell>
        <mxCell id="bjHw961es4BenDyh05qI-1022" value="" style="shape=tableRow;horizontal=0;startSize=0;swimlaneHead=0;swimlaneBody=0;fillColor=none;collapsible=0;dropTarget=0;points=[[0,0.5],[1,0.5]];portConstraint=eastwest;strokeColor=inherit;top=0;left=0;right=0;bottom=1;" vertex="1" parent="bjHw961es4BenDyh05qI-1018">
          <mxGeometry y="60" width="320" height="30" as="geometry" />
        </mxCell>
        <mxCell id="bjHw961es4BenDyh05qI-1023" value="PK" style="shape=partialRectangle;overflow=hidden;connectable=0;fillColor=none;strokeColor=inherit;top=0;left=0;bottom=0;right=0;fontStyle=1;" vertex="1" parent="bjHw961es4BenDyh05qI-1022">
          <mxGeometry width="30" height="30" as="geometry">
            <mxRectangle width="30" height="30" as="alternateBounds" />
          </mxGeometry>
        </mxCell>
        <mxCell id="bjHw961es4BenDyh05qI-1024" value="episode_combo_id INT UNSIGNED NOT NULL" style="shape=partialRectangle;overflow=hidden;connectable=0;fillColor=none;align=left;strokeColor=inherit;top=0;left=0;bottom=0;right=0;spacingLeft=6;fontStyle=5;" vertex="1" parent="bjHw961es4BenDyh05qI-1022">
          <mxGeometry x="30" width="290" height="30" as="geometry">
            <mxRectangle width="290" height="30" as="alternateBounds" />
          </mxGeometry>
        </mxCell>
        <mxCell id="bjHw961es4BenDyh05qI-1025" value="" style="shape=tableRow;horizontal=0;startSize=0;swimlaneHead=0;swimlaneBody=0;fillColor=none;collapsible=0;dropTarget=0;points=[[0,0.5],[1,0.5]];portConstraint=eastwest;strokeColor=inherit;top=0;left=0;right=0;bottom=0;" vertex="1" parent="bjHw961es4BenDyh05qI-1018">
          <mxGeometry y="90" width="320" height="30" as="geometry" />
        </mxCell>
        <mxCell id="bjHw961es4BenDyh05qI-1026" value="" style="shape=partialRectangle;overflow=hidden;connectable=0;fillColor=none;strokeColor=inherit;top=0;left=0;bottom=0;right=0;" vertex="1" parent="bjHw961es4BenDyh05qI-1025">
          <mxGeometry width="30" height="30" as="geometry">
            <mxRectangle width="30" height="30" as="alternateBounds" />
          </mxGeometry>
        </mxCell>
        <mxCell id="bjHw961es4BenDyh05qI-1027" value="rating INT NOT NULL" style="shape=partialRectangle;overflow=hidden;connectable=0;fillColor=none;align=left;strokeColor=inherit;top=0;left=0;bottom=0;right=0;spacingLeft=6;" vertex="1" parent="bjHw961es4BenDyh05qI-1025">
          <mxGeometry x="30" width="290" height="30" as="geometry">
            <mxRectangle width="290" height="30" as="alternateBounds" />
          </mxGeometry>
        </mxCell>
        <mxCell id="bjHw961es4BenDyh05qI-1028" value="" style="shape=tableRow;horizontal=0;startSize=0;swimlaneHead=0;swimlaneBody=0;fillColor=none;collapsible=0;dropTarget=0;points=[[0,0.5],[1,0.5]];portConstraint=eastwest;strokeColor=inherit;top=0;left=0;right=0;bottom=0;" vertex="1" parent="bjHw961es4BenDyh05qI-1018">
          <mxGeometry y="120" width="320" height="30" as="geometry" />
        </mxCell>
        <mxCell id="bjHw961es4BenDyh05qI-1029" value="" style="shape=partialRectangle;overflow=hidden;connectable=0;fillColor=none;strokeColor=inherit;top=0;left=0;bottom=0;right=0;" vertex="1" parent="bjHw961es4BenDyh05qI-1028">
          <mxGeometry width="30" height="30" as="geometry">
            <mxRectangle width="30" height="30" as="alternateBounds" />
          </mxGeometry>
        </mxCell>
        <mxCell id="bjHw961es4BenDyh05qI-1030" value="CONSTRAINT  chk_rating" style="shape=partialRectangle;overflow=hidden;connectable=0;fillColor=none;align=left;strokeColor=inherit;top=0;left=0;bottom=0;right=0;spacingLeft=6;" vertex="1" parent="bjHw961es4BenDyh05qI-1028">
          <mxGeometry x="30" width="290" height="30" as="geometry">
            <mxRectangle width="290" height="30" as="alternateBounds" />
          </mxGeometry>
        </mxCell>
        <mxCell id="bjHw961es4BenDyh05qI-1031" value="" style="shape=tableRow;horizontal=0;startSize=0;swimlaneHead=0;swimlaneBody=0;fillColor=none;collapsible=0;dropTarget=0;points=[[0,0.5],[1,0.5]];portConstraint=eastwest;strokeColor=inherit;top=0;left=0;right=0;bottom=0;" vertex="1" parent="bjHw961es4BenDyh05qI-1018">
          <mxGeometry y="150" width="320" height="30" as="geometry" />
        </mxCell>
        <mxCell id="bjHw961es4BenDyh05qI-1032" value="" style="shape=partialRectangle;overflow=hidden;connectable=0;fillColor=none;strokeColor=inherit;top=0;left=0;bottom=0;right=0;" vertex="1" parent="bjHw961es4BenDyh05qI-1031">
          <mxGeometry width="30" height="30" as="geometry">
            <mxRectangle width="30" height="30" as="alternateBounds" />
          </mxGeometry>
        </mxCell>
        <mxCell id="bjHw961es4BenDyh05qI-1033" value="CHECK (rating&gt;=1 AND rating&lt;=5)" style="shape=partialRectangle;overflow=hidden;connectable=0;fillColor=none;align=left;strokeColor=inherit;top=0;left=0;bottom=0;right=0;spacingLeft=6;" vertex="1" parent="bjHw961es4BenDyh05qI-1031">
          <mxGeometry x="30" width="290" height="30" as="geometry">
            <mxRectangle width="290" height="30" as="alternateBounds" />
          </mxGeometry>
        </mxCell>
        <mxCell id="bjHw961es4BenDyh05qI-1034" value="" style="shape=tableRow;horizontal=0;startSize=0;swimlaneHead=0;swimlaneBody=0;fillColor=none;collapsible=0;dropTarget=0;points=[[0,0.5],[1,0.5]];portConstraint=eastwest;strokeColor=inherit;top=0;left=0;right=0;bottom=0;" vertex="1" parent="bjHw961es4BenDyh05qI-1018">
          <mxGeometry y="180" width="320" height="30" as="geometry" />
        </mxCell>
        <mxCell id="bjHw961es4BenDyh05qI-1035" value="" style="shape=partialRectangle;overflow=hidden;connectable=0;fillColor=none;strokeColor=inherit;top=0;left=0;bottom=0;right=0;" vertex="1" parent="bjHw961es4BenDyh05qI-1034">
          <mxGeometry width="30" height="30" as="geometry">
            <mxRectangle width="30" height="30" as="alternateBounds" />
          </mxGeometry>
        </mxCell>
        <mxCell id="bjHw961es4BenDyh05qI-1036" value="CONSTRAINT fk_rates_episode_combo" style="shape=partialRectangle;overflow=hidden;connectable=0;fillColor=none;align=left;strokeColor=inherit;top=0;left=0;bottom=0;right=0;spacingLeft=6;" vertex="1" parent="bjHw961es4BenDyh05qI-1034">
          <mxGeometry x="30" width="290" height="30" as="geometry">
            <mxRectangle width="290" height="30" as="alternateBounds" />
          </mxGeometry>
        </mxCell>
        <mxCell id="bjHw961es4BenDyh05qI-1037" value="" style="shape=tableRow;horizontal=0;startSize=0;swimlaneHead=0;swimlaneBody=0;fillColor=none;collapsible=0;dropTarget=0;points=[[0,0.5],[1,0.5]];portConstraint=eastwest;strokeColor=inherit;top=0;left=0;right=0;bottom=0;" vertex="1" parent="bjHw961es4BenDyh05qI-1018">
          <mxGeometry y="210" width="320" height="30" as="geometry" />
        </mxCell>
        <mxCell id="bjHw961es4BenDyh05qI-1038" value="" style="shape=partialRectangle;overflow=hidden;connectable=0;fillColor=none;strokeColor=inherit;top=0;left=0;bottom=0;right=0;" vertex="1" parent="bjHw961es4BenDyh05qI-1037">
          <mxGeometry width="30" height="30" as="geometry">
            <mxRectangle width="30" height="30" as="alternateBounds" />
          </mxGeometry>
        </mxCell>
        <mxCell id="bjHw961es4BenDyh05qI-1039" value="FOREIGN KEY (episode_combo_id)" style="shape=partialRectangle;overflow=hidden;connectable=0;fillColor=none;align=left;strokeColor=inherit;top=0;left=0;bottom=0;right=0;spacingLeft=6;" vertex="1" parent="bjHw961es4BenDyh05qI-1037">
          <mxGeometry x="30" width="290" height="30" as="geometry">
            <mxRectangle width="290" height="30" as="alternateBounds" />
          </mxGeometry>
        </mxCell>
        <mxCell id="bjHw961es4BenDyh05qI-1040" value="" style="shape=tableRow;horizontal=0;startSize=0;swimlaneHead=0;swimlaneBody=0;fillColor=none;collapsible=0;dropTarget=0;points=[[0,0.5],[1,0.5]];portConstraint=eastwest;strokeColor=inherit;top=0;left=0;right=0;bottom=0;" vertex="1" parent="bjHw961es4BenDyh05qI-1018">
          <mxGeometry y="240" width="320" height="30" as="geometry" />
        </mxCell>
        <mxCell id="bjHw961es4BenDyh05qI-1041" value="" style="shape=partialRectangle;overflow=hidden;connectable=0;fillColor=none;strokeColor=inherit;top=0;left=0;bottom=0;right=0;" vertex="1" parent="bjHw961es4BenDyh05qI-1040">
          <mxGeometry width="30" height="30" as="geometry">
            <mxRectangle width="30" height="30" as="alternateBounds" />
          </mxGeometry>
        </mxCell>
        <mxCell id="bjHw961es4BenDyh05qI-1042" value="REFERENCES Episode_Combo (episode_combo_id)" style="shape=partialRectangle;overflow=hidden;connectable=0;fillColor=none;align=left;strokeColor=inherit;top=0;left=0;bottom=0;right=0;spacingLeft=6;" vertex="1" parent="bjHw961es4BenDyh05qI-1040">
          <mxGeometry x="30" width="290" height="30" as="geometry">
            <mxRectangle width="290" height="30" as="alternateBounds" />
          </mxGeometry>
        </mxCell>
        <mxCell id="bjHw961es4BenDyh05qI-1043" value="" style="shape=tableRow;horizontal=0;startSize=0;swimlaneHead=0;swimlaneBody=0;fillColor=none;collapsible=0;dropTarget=0;points=[[0,0.5],[1,0.5]];portConstraint=eastwest;strokeColor=inherit;top=0;left=0;right=0;bottom=0;" vertex="1" parent="bjHw961es4BenDyh05qI-1018">
          <mxGeometry y="270" width="320" height="30" as="geometry" />
        </mxCell>
        <mxCell id="bjHw961es4BenDyh05qI-1044" value="" style="shape=partialRectangle;overflow=hidden;connectable=0;fillColor=none;strokeColor=inherit;top=0;left=0;bottom=0;right=0;" vertex="1" parent="bjHw961es4BenDyh05qI-1043">
          <mxGeometry width="30" height="30" as="geometry">
            <mxRectangle width="30" height="30" as="alternateBounds" />
          </mxGeometry>
        </mxCell>
        <mxCell id="bjHw961es4BenDyh05qI-1045" value="ON DELETE RESTRICT" style="shape=partialRectangle;overflow=hidden;connectable=0;fillColor=none;align=left;strokeColor=inherit;top=0;left=0;bottom=0;right=0;spacingLeft=6;" vertex="1" parent="bjHw961es4BenDyh05qI-1043">
          <mxGeometry x="30" width="290" height="30" as="geometry">
            <mxRectangle width="290" height="30" as="alternateBounds" />
          </mxGeometry>
        </mxCell>
        <mxCell id="bjHw961es4BenDyh05qI-1046" value="" style="shape=tableRow;horizontal=0;startSize=0;swimlaneHead=0;swimlaneBody=0;fillColor=none;collapsible=0;dropTarget=0;points=[[0,0.5],[1,0.5]];portConstraint=eastwest;strokeColor=inherit;top=0;left=0;right=0;bottom=0;" vertex="1" parent="bjHw961es4BenDyh05qI-1018">
          <mxGeometry y="300" width="320" height="30" as="geometry" />
        </mxCell>
        <mxCell id="bjHw961es4BenDyh05qI-1047" value="" style="shape=partialRectangle;overflow=hidden;connectable=0;fillColor=none;strokeColor=inherit;top=0;left=0;bottom=0;right=0;" vertex="1" parent="bjHw961es4BenDyh05qI-1046">
          <mxGeometry width="30" height="30" as="geometry">
            <mxRectangle width="30" height="30" as="alternateBounds" />
          </mxGeometry>
        </mxCell>
        <mxCell id="bjHw961es4BenDyh05qI-1048" value="ON UPDATE CASCADE" style="shape=partialRectangle;overflow=hidden;connectable=0;fillColor=none;align=left;strokeColor=inherit;top=0;left=0;bottom=0;right=0;spacingLeft=6;" vertex="1" parent="bjHw961es4BenDyh05qI-1046">
          <mxGeometry x="30" width="290" height="30" as="geometry">
            <mxRectangle width="290" height="30" as="alternateBounds" />
          </mxGeometry>
        </mxCell>
        <mxCell id="bjHw961es4BenDyh05qI-1049" value="" style="shape=tableRow;horizontal=0;startSize=0;swimlaneHead=0;swimlaneBody=0;fillColor=none;collapsible=0;dropTarget=0;points=[[0,0.5],[1,0.5]];portConstraint=eastwest;strokeColor=inherit;top=0;left=0;right=0;bottom=0;" vertex="1" parent="bjHw961es4BenDyh05qI-1018">
          <mxGeometry y="330" width="320" height="30" as="geometry" />
        </mxCell>
        <mxCell id="bjHw961es4BenDyh05qI-1050" value="" style="shape=partialRectangle;overflow=hidden;connectable=0;fillColor=none;strokeColor=inherit;top=0;left=0;bottom=0;right=0;" vertex="1" parent="bjHw961es4BenDyh05qI-1049">
          <mxGeometry width="30" height="30" as="geometry">
            <mxRectangle width="30" height="30" as="alternateBounds" />
          </mxGeometry>
        </mxCell>
        <mxCell id="bjHw961es4BenDyh05qI-1051" value="CONSTRAINT fk_judge_rates" style="shape=partialRectangle;overflow=hidden;connectable=0;fillColor=none;align=left;strokeColor=inherit;top=0;left=0;bottom=0;right=0;spacingLeft=6;" vertex="1" parent="bjHw961es4BenDyh05qI-1049">
          <mxGeometry x="30" width="290" height="30" as="geometry">
            <mxRectangle width="290" height="30" as="alternateBounds" />
          </mxGeometry>
        </mxCell>
        <mxCell id="bjHw961es4BenDyh05qI-1052" value="" style="shape=tableRow;horizontal=0;startSize=0;swimlaneHead=0;swimlaneBody=0;fillColor=none;collapsible=0;dropTarget=0;points=[[0,0.5],[1,0.5]];portConstraint=eastwest;strokeColor=inherit;top=0;left=0;right=0;bottom=0;" vertex="1" parent="bjHw961es4BenDyh05qI-1018">
          <mxGeometry y="360" width="320" height="30" as="geometry" />
        </mxCell>
        <mxCell id="bjHw961es4BenDyh05qI-1053" value="" style="shape=partialRectangle;overflow=hidden;connectable=0;fillColor=none;strokeColor=inherit;top=0;left=0;bottom=0;right=0;" vertex="1" parent="bjHw961es4BenDyh05qI-1052">
          <mxGeometry width="30" height="30" as="geometry">
            <mxRectangle width="30" height="30" as="alternateBounds" />
          </mxGeometry>
        </mxCell>
        <mxCell id="bjHw961es4BenDyh05qI-1054" value="FOREIGN KEY (episode_judge_id)" style="shape=partialRectangle;overflow=hidden;connectable=0;fillColor=none;align=left;strokeColor=inherit;top=0;left=0;bottom=0;right=0;spacingLeft=6;" vertex="1" parent="bjHw961es4BenDyh05qI-1052">
          <mxGeometry x="30" width="290" height="30" as="geometry">
            <mxRectangle width="290" height="30" as="alternateBounds" />
          </mxGeometry>
        </mxCell>
        <mxCell id="bjHw961es4BenDyh05qI-1055" value="" style="shape=tableRow;horizontal=0;startSize=0;swimlaneHead=0;swimlaneBody=0;fillColor=none;collapsible=0;dropTarget=0;points=[[0,0.5],[1,0.5]];portConstraint=eastwest;strokeColor=inherit;top=0;left=0;right=0;bottom=0;" vertex="1" parent="bjHw961es4BenDyh05qI-1018">
          <mxGeometry y="390" width="320" height="30" as="geometry" />
        </mxCell>
        <mxCell id="bjHw961es4BenDyh05qI-1056" value="" style="shape=partialRectangle;overflow=hidden;connectable=0;fillColor=none;strokeColor=inherit;top=0;left=0;bottom=0;right=0;" vertex="1" parent="bjHw961es4BenDyh05qI-1055">
          <mxGeometry width="30" height="30" as="geometry">
            <mxRectangle width="30" height="30" as="alternateBounds" />
          </mxGeometry>
        </mxCell>
        <mxCell id="bjHw961es4BenDyh05qI-1057" value="REFERENCES Episode_Judge (episode_judge_id)" style="shape=partialRectangle;overflow=hidden;connectable=0;fillColor=none;align=left;strokeColor=inherit;top=0;left=0;bottom=0;right=0;spacingLeft=6;" vertex="1" parent="bjHw961es4BenDyh05qI-1055">
          <mxGeometry x="30" width="290" height="30" as="geometry">
            <mxRectangle width="290" height="30" as="alternateBounds" />
          </mxGeometry>
        </mxCell>
        <mxCell id="bjHw961es4BenDyh05qI-1058" value="" style="shape=tableRow;horizontal=0;startSize=0;swimlaneHead=0;swimlaneBody=0;fillColor=none;collapsible=0;dropTarget=0;points=[[0,0.5],[1,0.5]];portConstraint=eastwest;strokeColor=inherit;top=0;left=0;right=0;bottom=0;" vertex="1" parent="bjHw961es4BenDyh05qI-1018">
          <mxGeometry y="420" width="320" height="30" as="geometry" />
        </mxCell>
        <mxCell id="bjHw961es4BenDyh05qI-1059" value="" style="shape=partialRectangle;overflow=hidden;connectable=0;fillColor=none;strokeColor=inherit;top=0;left=0;bottom=0;right=0;" vertex="1" parent="bjHw961es4BenDyh05qI-1058">
          <mxGeometry width="30" height="30" as="geometry">
            <mxRectangle width="30" height="30" as="alternateBounds" />
          </mxGeometry>
        </mxCell>
        <mxCell id="bjHw961es4BenDyh05qI-1060" value="ON DELETE RESTRICT" style="shape=partialRectangle;overflow=hidden;connectable=0;fillColor=none;align=left;strokeColor=inherit;top=0;left=0;bottom=0;right=0;spacingLeft=6;" vertex="1" parent="bjHw961es4BenDyh05qI-1058">
          <mxGeometry x="30" width="290" height="30" as="geometry">
            <mxRectangle width="290" height="30" as="alternateBounds" />
          </mxGeometry>
        </mxCell>
        <mxCell id="bjHw961es4BenDyh05qI-1061" value="" style="shape=tableRow;horizontal=0;startSize=0;swimlaneHead=0;swimlaneBody=0;fillColor=none;collapsible=0;dropTarget=0;points=[[0,0.5],[1,0.5]];portConstraint=eastwest;strokeColor=inherit;top=0;left=0;right=0;bottom=0;" vertex="1" parent="bjHw961es4BenDyh05qI-1018">
          <mxGeometry y="450" width="320" height="30" as="geometry" />
        </mxCell>
        <mxCell id="bjHw961es4BenDyh05qI-1062" value="" style="shape=partialRectangle;overflow=hidden;connectable=0;fillColor=none;strokeColor=inherit;top=0;left=0;bottom=0;right=0;" vertex="1" parent="bjHw961es4BenDyh05qI-1061">
          <mxGeometry width="30" height="30" as="geometry">
            <mxRectangle width="30" height="30" as="alternateBounds" />
          </mxGeometry>
        </mxCell>
        <mxCell id="bjHw961es4BenDyh05qI-1063" value="ON UPDATE CASCADE" style="shape=partialRectangle;overflow=hidden;connectable=0;fillColor=none;align=left;strokeColor=inherit;top=0;left=0;bottom=0;right=0;spacingLeft=6;" vertex="1" parent="bjHw961es4BenDyh05qI-1061">
          <mxGeometry x="30" width="290" height="30" as="geometry">
            <mxRectangle width="290" height="30" as="alternateBounds" />
          </mxGeometry>
        </mxCell>
        <mxCell id="bjHw961es4BenDyh05qI-1064" value="" style="rounded=0;whiteSpace=wrap;html=1;fillColor=none;strokeColor=#000000;strokeWidth=5;" vertex="1" parent="1">
          <mxGeometry x="-3490" y="-700" width="1070" height="1140" as="geometry" />
        </mxCell>
      </root>
    </mxGraphModel>
  </diagram>
</mxfile>
